<svg width="36" height="20" viewBox="0 0 36 20" fill="none" xmlns="http://www.w3.org/2000/svg">
<path d="M27.2826 8.65768H27.2556L27.2408 8.68024L25.6117 11.1618L25.6535 11.1892L25.6117 11.1618C25.5326 11.2823 25.4311 11.3767 25.3166 11.4378C25.2022 11.4987 25.078 11.5248 24.9543 11.5144C24.8307 11.504 24.7102 11.4573 24.6033 11.3773C24.4964 11.2973 24.4063 11.1862 24.3415 11.0531L24.3415 11.0531L22.7687 7.82398L22.7025 7.68805L22.6747 7.83665L20.5609 19.0991C20.5212 19.3106 20.4236 19.4979 20.2857 19.6311C20.148 19.7641 19.9787 19.8352 19.8058 19.8352H19.8058H19.8057H19.8057H19.8057H19.8056H19.8056H19.8056H19.8055H19.8055H19.8055H19.8054H19.8054H19.8054H19.8054H19.8053H19.8053H19.8053H19.8052H19.8052H19.8052H19.8051H19.8051H19.8051H19.805H19.805H19.805H19.8049H19.8049H19.8049H19.8048H19.8048H19.8048H19.8047H19.8047H19.8047H19.8046H19.8046H19.8046H19.8045H19.8045H19.8045H19.8044H19.8044H19.8044H19.8044H19.8043H19.8043H19.8043H19.8042H19.8042H19.8042H19.8041H19.8041H19.8041H19.804H19.804H19.804H19.8039H19.8039H19.8039H19.8038H19.8038H19.8038H19.8037H19.8037H19.8037H19.8036H19.8036H19.8036H19.8035H19.8035H19.8035H19.8034H19.8034H19.8034H19.8034H19.8033H19.8033H19.8033H19.8032H19.8032H19.8032H19.8031H19.8031H19.8031H19.803H19.803H19.803H19.8029H19.8029H19.8029H19.8028H19.8028H19.8028H19.8027H19.8027H19.8027H19.8026H19.8026H19.8026H19.8025H19.8025H19.8025H19.8025H19.8024H19.8024H19.8024H19.8023H19.8023H19.8023H19.8022H19.8022H19.8022H19.8021H19.8021H19.8021H19.802H19.802H19.802H19.8019H19.8019H19.8019H19.8018H19.8018H19.8018H19.8017H19.8017H19.8017H19.8016H19.8016H19.8016H19.8015H19.8015H19.8015H19.8015H19.8014H19.8014H19.8014H19.8013H19.8013H19.8013H19.8012H19.8012H19.8012H19.8011H19.8011H19.8011H19.801H19.801H19.801H19.8009H19.8009H19.8009H19.8008H19.8008H19.8008H19.8007H19.8007H19.8007H19.8006H19.8006H19.8006H19.8006H19.8005H19.8005H19.8005H19.8004H19.8004H19.8004H19.8003H19.8003H19.8003H19.8002H19.8002H19.8002H19.8001H19.8001H19.8001H19.8H19.8H19.8H19.7999H19.7999H19.7999H19.7998H19.7998H19.7998H19.7997H19.7997H19.7997H19.7996H19.7996H19.7996H19.7996H19.7995H19.7995H19.7995H19.7994H19.7994H19.7994H19.7993H19.7993H19.7993H19.7992H19.7992H19.7992H19.7991H19.7991H19.7991H19.799H19.799H19.799H19.7989H19.7989H19.7989H19.7988H19.7988H19.7988H19.7987H19.7987H19.7987H19.7986H19.7986H19.7986H19.7986H19.7985H19.7985H19.7985H19.7984H19.7984H19.7984H19.7983H19.7983H19.7983H19.7982H19.7982H19.7982H19.7981H19.7981H19.7981H19.798H19.798H19.798H19.7979H19.7979H19.7979H19.7978H19.7978H19.7978H19.7977H19.7977H19.7977H19.7976H19.7976H19.7976H19.7976H19.7975H19.7975H19.7975H19.7974H19.7974H19.7974H19.7973H19.7973H19.7973H19.7972H19.7972H19.7972H19.7971H19.7971H19.7971H19.797H19.797H19.797H19.7969H19.7969H19.7969H19.7968H19.7968H19.7968H19.7967H19.7967H19.7967H19.7966H19.7966H19.7966H19.7966H19.7965H19.7965H19.7965H19.7964H19.7964H19.7964H19.7963H19.7963H19.7963H19.7962H19.7962H19.7962H19.7961H19.7961H19.7961H19.796H19.796H19.796H19.7959H19.7959H19.7959H19.7958H19.7958H19.7958H19.7957H19.7957H19.7957H19.7957H19.7956H19.7956H19.7956H19.7955H19.7955H19.7955H19.7954H19.7954H19.7954H19.7953H19.7953H19.7953H19.7952H19.7952H19.7952H19.7951H19.7951H19.7951H19.795H19.795H19.795H19.7949H19.7949H19.7949H19.7948H19.7948H19.7948H19.7948H19.7947H19.7947H19.7947H19.7946H19.7946H19.7946H19.7945H19.7945H19.7945H19.7944H19.7944H19.7944H19.7943H19.7943H19.7943H19.7942H19.7942H19.7942H19.7941H19.7941H19.7941H19.794H19.794H19.794H19.7939H19.7939H19.7939H19.7938H19.7938H19.7938H19.7938H19.7937H19.7937H19.7937H19.7936H19.7936H19.7936H19.7935H19.7935H19.7935H19.7934H19.7934H19.7934H19.7933H19.7933H19.7933H19.7932H19.7932H19.7932H19.7931H19.7931H19.7931H19.793H19.793H19.793H19.7929H19.7929H19.7929H19.7928H19.7928H19.7928H19.7928H19.7927H19.7927H19.7927H19.7926H19.7926H19.7926H19.7925H19.7925H19.7925H19.7924H19.7924H19.7924H19.7923H19.7923H19.7923H19.7922H19.7922H19.7922H19.7921H19.7921H19.7921H19.792H19.792H19.792H19.7919H19.7919H19.7919H19.7918H19.7918H19.7918H19.7918H19.7917H19.7917H19.7917H19.7916H19.7916H19.7916H19.7915H19.7915H19.7915H19.7914H19.7914H19.7914H19.7913H19.7913H19.7913H19.7912H19.7912H19.7912H19.7911H19.7911H19.7911H19.791H19.791H19.791H19.7909H19.7909H19.7909H19.7908H19.7908H19.7908H19.7908H19.7907H19.7907H19.7907H19.7906H19.7906H19.7906H19.7905H19.7905H19.7905H19.7904H19.7904H19.7904H19.7903H19.7903H19.7903H19.7902H19.7902H19.7902H19.7901H19.7901H19.7901H19.79H19.79H19.79H19.7899C19.6147 19.8309 19.4443 19.7536 19.3079 19.6137C19.1711 19.4734 19.0773 19.2789 19.044 19.0624L16.8402 4.71508L16.8112 4.52667L16.744 4.70503L13.6454 12.9215C13.5838 13.0848 13.4858 13.2224 13.3639 13.3195C13.2421 13.4164 13.1013 13.4689 12.9577 13.4726C12.8141 13.4762 12.6717 13.4308 12.5469 13.3403C12.4219 13.2496 12.3194 13.1172 12.2523 12.9573L10.5511 8.90326L10.5382 8.87261H10.505H1.51628C1.31417 8.87261 1.11792 8.77557 0.971542 8.59852C0.824942 8.42119 0.741406 8.17897 0.741406 7.92486C0.741406 7.67075 0.824943 7.42853 0.971542 7.2512C1.11792 7.07415 1.31417 6.97711 1.51628 6.97711H11.0113C11.1522 6.97712 11.2912 7.02428 11.413 7.11471C11.5349 7.20524 11.6348 7.33573 11.7007 7.49264L11.7468 7.4733L11.7007 7.49264L12.8558 10.2453L12.9044 10.3611L12.9487 10.2436L16.4207 1.03675C16.4903 0.852286 16.606 0.701206 16.7495 0.604063C16.8927 0.507097 17.0565 0.468536 17.2175 0.492438C17.3787 0.516364 17.531 0.602025 17.6518 0.739376C17.7727 0.876845 17.8552 1.05853 17.8859 1.25851L19.837 13.9589L19.9356 13.9605L21.6244 4.96187C21.6595 4.77505 21.74 4.60643 21.8542 4.47741C21.9684 4.34849 22.1107 4.2654 22.262 4.23689C22.4131 4.20841 22.5682 4.2353 22.7076 4.3151C22.8473 4.39503 22.9654 4.52479 23.0454 4.68902L25.0635 8.83242L25.102 8.91147L25.1502 8.83797L26.28 7.11685C26.3534 7.00507 26.4462 6.91565 26.5508 6.85455C26.6554 6.7935 26.7694 6.76214 26.8844 6.76218H35.0612C35.2633 6.76218 35.4595 6.85922 35.6059 7.03627C35.7525 7.2136 35.836 7.45582 35.836 7.70993C35.836 7.96404 35.7525 8.20626 35.6059 8.38358C35.4595 8.56064 35.2633 8.65768 35.0612 8.65768H27.2826Z" fill="#29C3C3" stroke="white" stroke-width="0.1"/>
</svg>
