<svg width="20" height="20" viewBox="0 0 20 20" fill="none" xmlns="http://www.w3.org/2000/svg">
<mask id="path-1-outside-1_1257_8633" maskUnits="userSpaceOnUse" x="-0.32251" y="-0.777344" width="20" height="21" fill="black">
<rect fill="white" x="-0.32251" y="-0.777344" width="20" height="21"/>
<path fill-rule="evenodd" clip-rule="evenodd" d="M18.47 11.3265C18.2405 11.2073 18.048 11.0275 17.9134 10.8067C17.7787 10.5858 17.707 10.3324 17.7061 10.0738C17.6809 9.79113 17.74 9.50737 17.876 9.2583C18.012 9.00923 18.2186 8.80603 18.47 8.67432C18.858 8.44494 19.1398 8.07174 19.2542 7.63579C19.3686 7.19984 19.3064 6.73634 19.0811 6.34599L17.6939 3.88932C17.4657 3.50505 17.0959 3.22571 16.6638 3.11142C16.2318 2.99713 15.7722 3.05702 15.3839 3.27821C15.1596 3.41288 14.903 3.48403 14.6414 3.48403C14.3798 3.48403 14.1231 3.41288 13.8989 3.27821C13.6458 3.15765 13.4348 2.96387 13.2931 2.72198C13.1515 2.48009 13.0857 2.20124 13.1044 1.92155C13.1012 1.46985 12.9195 1.03776 12.599 0.7195C12.2784 0.401243 11.845 0.222645 11.3933 0.222656H8.60665C8.15495 0.224267 7.72221 0.404417 7.40281 0.723818C7.08341 1.04322 6.90326 1.47596 6.90165 1.92766C6.9097 2.21404 6.83575 2.49677 6.68851 2.74254C6.54127 2.98831 6.32686 3.18688 6.07054 3.31488C5.85092 3.43796 5.60217 3.49951 5.3505 3.49306C5.09883 3.48661 4.85356 3.41238 4.64054 3.27821C4.44769 3.1629 4.23374 3.08728 4.01126 3.0558C3.78878 3.02431 3.56226 3.0376 3.34498 3.09488C3.1282 3.15091 2.92498 3.25017 2.74751 3.38669C2.57003 3.5232 2.42197 3.69417 2.31221 3.88932L0.90665 6.33377C0.681333 6.72412 0.61913 7.18761 0.733553 7.62356C0.847975 8.05951 1.12978 8.43271 1.51776 8.6621C1.74231 8.77944 1.93149 8.95457 2.06577 9.16942C2.20005 9.38427 2.27458 9.63106 2.28165 9.88432C2.30682 10.167 2.2477 10.4507 2.11175 10.6998C1.97579 10.9489 1.7691 11.1521 1.51776 11.2838C1.12978 11.5132 0.847975 11.8864 0.733553 12.3223C0.61913 12.7583 0.681333 13.2217 0.90665 13.6121L2.31221 16.0565C2.41615 16.2619 2.56163 16.4435 2.73941 16.5897C2.91719 16.7359 3.1234 16.8436 3.34498 16.906C3.5719 16.9676 3.80886 16.9831 4.04187 16.9516C4.27489 16.9201 4.49923 16.8423 4.70165 16.7227C4.93849 16.5899 5.20789 16.5263 5.47911 16.5393C5.75033 16.5523 6.01244 16.6412 6.23554 16.796C6.43908 16.9212 6.60716 17.0965 6.72376 17.3051C6.84037 17.5137 6.90161 17.7487 6.90165 17.9877C6.88985 18.2276 6.92834 18.4673 7.01463 18.6915C7.10093 18.9156 7.23313 19.1193 7.40276 19.2893C7.56207 19.4511 7.75251 19.5789 7.96257 19.665C8.17264 19.7511 8.39797 19.7938 8.62498 19.7904H11.4116C11.8633 19.7888 12.2961 19.6087 12.6155 19.2893C12.9349 18.9699 13.115 18.5371 13.1167 18.0854C13.106 17.8246 13.1662 17.5658 13.2911 17.3366C13.4159 17.1073 13.6006 16.9163 13.8255 16.7838C14.0458 16.6214 14.3097 16.5289 14.5831 16.518C14.8565 16.5071 15.1269 16.5784 15.3594 16.7227C15.5528 16.836 15.7666 16.9101 15.9886 16.9407C16.2107 16.9713 16.4365 16.9579 16.6534 16.9011C16.8702 16.8444 17.0737 16.7454 17.2522 16.6099C17.4308 16.4744 17.5808 16.3051 17.6939 16.1115L19.0933 13.6671C19.2063 13.4725 19.2798 13.2576 19.3096 13.0346C19.3394 12.8116 19.3249 12.585 19.267 12.3676C19.2091 12.1502 19.1089 11.9463 18.9722 11.7677C18.8354 11.5891 18.6648 11.4391 18.47 11.3265ZM18.2866 13.1599L16.8872 15.6043C16.7818 15.7824 16.6106 15.9119 16.4105 15.9649C16.3088 15.9952 16.2018 16.0038 16.0965 15.9901C15.9913 15.9764 15.89 15.9407 15.7994 15.8854C15.4261 15.6532 14.994 15.5327 14.5544 15.5382C14.1148 15.5436 13.6859 15.6747 13.3183 15.916C12.9519 16.1317 12.6499 16.4416 12.4436 16.8134C12.2373 17.1851 12.1342 17.6054 12.145 18.0304C12.1455 18.1316 12.1258 18.2318 12.0869 18.3252C12.0481 18.4187 11.991 18.5033 11.9189 18.5743C11.8471 18.6474 11.7615 18.7056 11.6671 18.7454C11.5727 18.7853 11.4713 18.8061 11.3689 18.8065H8.60665C8.50418 18.8061 8.40283 18.7853 8.30843 18.7454C8.21403 18.7056 8.12846 18.6474 8.05665 18.5743C7.9745 18.4903 7.9117 18.3893 7.87264 18.2785C7.83358 18.1677 7.81921 18.0496 7.83054 17.9327C7.83516 17.5103 7.72359 17.0949 7.50804 16.7316C7.29249 16.3684 6.98124 16.0715 6.60832 15.8732C6.26317 15.6665 5.86967 15.5542 5.4674 15.5478C5.06512 15.5414 4.66824 15.641 4.31665 15.8365C4.21392 15.9036 4.09885 15.9494 3.97818 15.9715C3.85752 15.9935 3.73366 15.9913 3.61387 15.9649C3.41638 15.9099 3.24777 15.7807 3.14332 15.6043L1.74387 13.1599C1.64164 12.9822 1.61383 12.7714 1.66649 12.5733C1.71916 12.3752 1.84803 12.2061 2.02498 12.1027C2.41464 11.8892 2.73609 11.57 2.95232 11.1819C3.16855 10.7937 3.27077 10.3524 3.24721 9.90877C3.25002 9.48517 3.13782 9.06876 2.92258 8.70392C2.70733 8.33908 2.39711 8.03949 2.02498 7.8371C1.84803 7.7337 1.71916 7.56451 1.66649 7.36644C1.61383 7.16837 1.64164 6.95751 1.74387 6.77988L3.14332 4.33543C3.24777 4.15904 3.41638 4.02985 3.61387 3.97488C3.71571 3.94533 3.82256 3.93713 3.92772 3.9508C4.03288 3.96447 4.13408 3.99971 4.22498 4.05432C4.59835 4.28651 5.03036 4.40701 5.47 4.40159C5.90965 4.39618 6.33856 4.26508 6.70609 4.02377C7.0725 3.80803 7.37453 3.4982 7.58084 3.12641C7.78716 2.75461 7.89025 2.33439 7.87943 1.90932C7.8789 1.80816 7.89864 1.70792 7.93748 1.61451C7.97631 1.5211 8.03345 1.43641 8.10554 1.36543C8.17735 1.29234 8.26292 1.23418 8.35732 1.19432C8.45172 1.15446 8.55307 1.1337 8.65554 1.13321H11.4422C11.5447 1.1337 11.646 1.15446 11.7404 1.19432C11.8348 1.23418 11.9204 1.29234 11.9922 1.36543C12.0643 1.43641 12.1214 1.5211 12.1603 1.61451C12.1991 1.70792 12.2188 1.80816 12.2183 1.90932C12.2018 2.33549 12.3018 2.75809 12.5074 3.13171C12.7131 3.50533 13.0167 3.81585 13.3855 4.02988C13.7622 4.25245 14.1917 4.36987 14.6292 4.36987C15.0666 4.36987 15.4961 4.25245 15.8728 4.02988C15.9634 3.97457 16.0646 3.93891 16.1699 3.92523C16.2752 3.91154 16.3821 3.92013 16.4839 3.95043C16.6839 4.0034 16.8551 4.1329 16.9605 4.31099L18.36 6.75543C18.4622 6.93307 18.49 7.14393 18.4374 7.34199C18.3847 7.54006 18.2558 7.70926 18.0789 7.81266C17.6892 8.02612 17.3678 8.3453 17.1515 8.73343C16.9353 9.12156 16.8331 9.56287 16.8566 10.0065C16.8538 10.4301 16.966 10.8466 17.1813 11.2114C17.3965 11.5762 17.7067 11.8758 18.0789 12.0782C18.1682 12.1354 18.2448 12.2102 18.3041 12.2981C18.3633 12.386 18.4039 12.4852 18.4234 12.5894C18.4429 12.6936 18.4408 12.8007 18.4173 12.9041C18.3937 13.0074 18.3493 13.1049 18.2866 13.1904V13.1599Z"/>
</mask>
<path fill-rule="evenodd" clip-rule="evenodd" d="M18.47 11.3265C18.2405 11.2073 18.048 11.0275 17.9134 10.8067C17.7787 10.5858 17.707 10.3324 17.7061 10.0738C17.6809 9.79113 17.74 9.50737 17.876 9.2583C18.012 9.00923 18.2186 8.80603 18.47 8.67432C18.858 8.44494 19.1398 8.07174 19.2542 7.63579C19.3686 7.19984 19.3064 6.73634 19.0811 6.34599L17.6939 3.88932C17.4657 3.50505 17.0959 3.22571 16.6638 3.11142C16.2318 2.99713 15.7722 3.05702 15.3839 3.27821C15.1596 3.41288 14.903 3.48403 14.6414 3.48403C14.3798 3.48403 14.1231 3.41288 13.8989 3.27821C13.6458 3.15765 13.4348 2.96387 13.2931 2.72198C13.1515 2.48009 13.0857 2.20124 13.1044 1.92155C13.1012 1.46985 12.9195 1.03776 12.599 0.7195C12.2784 0.401243 11.845 0.222645 11.3933 0.222656H8.60665C8.15495 0.224267 7.72221 0.404417 7.40281 0.723818C7.08341 1.04322 6.90326 1.47596 6.90165 1.92766C6.9097 2.21404 6.83575 2.49677 6.68851 2.74254C6.54127 2.98831 6.32686 3.18688 6.07054 3.31488C5.85092 3.43796 5.60217 3.49951 5.3505 3.49306C5.09883 3.48661 4.85356 3.41238 4.64054 3.27821C4.44769 3.1629 4.23374 3.08728 4.01126 3.0558C3.78878 3.02431 3.56226 3.0376 3.34498 3.09488C3.1282 3.15091 2.92498 3.25017 2.74751 3.38669C2.57003 3.5232 2.42197 3.69417 2.31221 3.88932L0.90665 6.33377C0.681333 6.72412 0.61913 7.18761 0.733553 7.62356C0.847975 8.05951 1.12978 8.43271 1.51776 8.6621C1.74231 8.77944 1.93149 8.95457 2.06577 9.16942C2.20005 9.38427 2.27458 9.63106 2.28165 9.88432C2.30682 10.167 2.2477 10.4507 2.11175 10.6998C1.97579 10.9489 1.7691 11.1521 1.51776 11.2838C1.12978 11.5132 0.847975 11.8864 0.733553 12.3223C0.61913 12.7583 0.681333 13.2217 0.90665 13.6121L2.31221 16.0565C2.41615 16.2619 2.56163 16.4435 2.73941 16.5897C2.91719 16.7359 3.1234 16.8436 3.34498 16.906C3.5719 16.9676 3.80886 16.9831 4.04187 16.9516C4.27489 16.9201 4.49923 16.8423 4.70165 16.7227C4.93849 16.5899 5.20789 16.5263 5.47911 16.5393C5.75033 16.5523 6.01244 16.6412 6.23554 16.796C6.43908 16.9212 6.60716 17.0965 6.72376 17.3051C6.84037 17.5137 6.90161 17.7487 6.90165 17.9877C6.88985 18.2276 6.92834 18.4673 7.01463 18.6915C7.10093 18.9156 7.23313 19.1193 7.40276 19.2893C7.56207 19.4511 7.75251 19.5789 7.96257 19.665C8.17264 19.7511 8.39797 19.7938 8.62498 19.7904H11.4116C11.8633 19.7888 12.2961 19.6087 12.6155 19.2893C12.9349 18.9699 13.115 18.5371 13.1167 18.0854C13.106 17.8246 13.1662 17.5658 13.2911 17.3366C13.4159 17.1073 13.6006 16.9163 13.8255 16.7838C14.0458 16.6214 14.3097 16.5289 14.5831 16.518C14.8565 16.5071 15.1269 16.5784 15.3594 16.7227C15.5528 16.836 15.7666 16.9101 15.9886 16.9407C16.2107 16.9713 16.4365 16.9579 16.6534 16.9011C16.8702 16.8444 17.0737 16.7454 17.2522 16.6099C17.4308 16.4744 17.5808 16.3051 17.6939 16.1115L19.0933 13.6671C19.2063 13.4725 19.2798 13.2576 19.3096 13.0346C19.3394 12.8116 19.3249 12.585 19.267 12.3676C19.2091 12.1502 19.1089 11.9463 18.9722 11.7677C18.8354 11.5891 18.6648 11.4391 18.47 11.3265ZM18.2866 13.1599L16.8872 15.6043C16.7818 15.7824 16.6106 15.9119 16.4105 15.9649C16.3088 15.9952 16.2018 16.0038 16.0965 15.9901C15.9913 15.9764 15.89 15.9407 15.7994 15.8854C15.4261 15.6532 14.994 15.5327 14.5544 15.5382C14.1148 15.5436 13.6859 15.6747 13.3183 15.916C12.9519 16.1317 12.6499 16.4416 12.4436 16.8134C12.2373 17.1851 12.1342 17.6054 12.145 18.0304C12.1455 18.1316 12.1258 18.2318 12.0869 18.3252C12.0481 18.4187 11.991 18.5033 11.9189 18.5743C11.8471 18.6474 11.7615 18.7056 11.6671 18.7454C11.5727 18.7853 11.4713 18.8061 11.3689 18.8065H8.60665C8.50418 18.8061 8.40283 18.7853 8.30843 18.7454C8.21403 18.7056 8.12846 18.6474 8.05665 18.5743C7.9745 18.4903 7.9117 18.3893 7.87264 18.2785C7.83358 18.1677 7.81921 18.0496 7.83054 17.9327C7.83516 17.5103 7.72359 17.0949 7.50804 16.7316C7.29249 16.3684 6.98124 16.0715 6.60832 15.8732C6.26317 15.6665 5.86967 15.5542 5.4674 15.5478C5.06512 15.5414 4.66824 15.641 4.31665 15.8365C4.21392 15.9036 4.09885 15.9494 3.97818 15.9715C3.85752 15.9935 3.73366 15.9913 3.61387 15.9649C3.41638 15.9099 3.24777 15.7807 3.14332 15.6043L1.74387 13.1599C1.64164 12.9822 1.61383 12.7714 1.66649 12.5733C1.71916 12.3752 1.84803 12.2061 2.02498 12.1027C2.41464 11.8892 2.73609 11.57 2.95232 11.1819C3.16855 10.7937 3.27077 10.3524 3.24721 9.90877C3.25002 9.48517 3.13782 9.06876 2.92258 8.70392C2.70733 8.33908 2.39711 8.03949 2.02498 7.8371C1.84803 7.7337 1.71916 7.56451 1.66649 7.36644C1.61383 7.16837 1.64164 6.95751 1.74387 6.77988L3.14332 4.33543C3.24777 4.15904 3.41638 4.02985 3.61387 3.97488C3.71571 3.94533 3.82256 3.93713 3.92772 3.9508C4.03288 3.96447 4.13408 3.99971 4.22498 4.05432C4.59835 4.28651 5.03036 4.40701 5.47 4.40159C5.90965 4.39618 6.33856 4.26508 6.70609 4.02377C7.0725 3.80803 7.37453 3.4982 7.58084 3.12641C7.78716 2.75461 7.89025 2.33439 7.87943 1.90932C7.8789 1.80816 7.89864 1.70792 7.93748 1.61451C7.97631 1.5211 8.03345 1.43641 8.10554 1.36543C8.17735 1.29234 8.26292 1.23418 8.35732 1.19432C8.45172 1.15446 8.55307 1.1337 8.65554 1.13321H11.4422C11.5447 1.1337 11.646 1.15446 11.7404 1.19432C11.8348 1.23418 11.9204 1.29234 11.9922 1.36543C12.0643 1.43641 12.1214 1.5211 12.1603 1.61451C12.1991 1.70792 12.2188 1.80816 12.2183 1.90932C12.2018 2.33549 12.3018 2.75809 12.5074 3.13171C12.7131 3.50533 13.0167 3.81585 13.3855 4.02988C13.7622 4.25245 14.1917 4.36987 14.6292 4.36987C15.0666 4.36987 15.4961 4.25245 15.8728 4.02988C15.9634 3.97457 16.0646 3.93891 16.1699 3.92523C16.2752 3.91154 16.3821 3.92013 16.4839 3.95043C16.6839 4.0034 16.8551 4.1329 16.9605 4.31099L18.36 6.75543C18.4622 6.93307 18.49 7.14393 18.4374 7.34199C18.3847 7.54006 18.2558 7.70926 18.0789 7.81266C17.6892 8.02612 17.3678 8.3453 17.1515 8.73343C16.9353 9.12156 16.8331 9.56287 16.8566 10.0065C16.8538 10.4301 16.966 10.8466 17.1813 11.2114C17.3965 11.5762 17.7067 11.8758 18.0789 12.0782C18.1682 12.1354 18.2448 12.2102 18.3041 12.2981C18.3633 12.386 18.4039 12.4852 18.4234 12.5894C18.4429 12.6936 18.4408 12.8007 18.4173 12.9041C18.3937 13.0074 18.3493 13.1049 18.2866 13.1904V13.1599Z" fill="#E9F4FF"/>
<path fill-rule="evenodd" clip-rule="evenodd" d="M18.47 11.3265C18.2405 11.2073 18.048 11.0275 17.9134 10.8067C17.7787 10.5858 17.707 10.3324 17.7061 10.0738C17.6809 9.79113 17.74 9.50737 17.876 9.2583C18.012 9.00923 18.2186 8.80603 18.47 8.67432C18.858 8.44494 19.1398 8.07174 19.2542 7.63579C19.3686 7.19984 19.3064 6.73634 19.0811 6.34599L17.6939 3.88932C17.4657 3.50505 17.0959 3.22571 16.6638 3.11142C16.2318 2.99713 15.7722 3.05702 15.3839 3.27821C15.1596 3.41288 14.903 3.48403 14.6414 3.48403C14.3798 3.48403 14.1231 3.41288 13.8989 3.27821C13.6458 3.15765 13.4348 2.96387 13.2931 2.72198C13.1515 2.48009 13.0857 2.20124 13.1044 1.92155C13.1012 1.46985 12.9195 1.03776 12.599 0.7195C12.2784 0.401243 11.845 0.222645 11.3933 0.222656H8.60665C8.15495 0.224267 7.72221 0.404417 7.40281 0.723818C7.08341 1.04322 6.90326 1.47596 6.90165 1.92766C6.9097 2.21404 6.83575 2.49677 6.68851 2.74254C6.54127 2.98831 6.32686 3.18688 6.07054 3.31488C5.85092 3.43796 5.60217 3.49951 5.3505 3.49306C5.09883 3.48661 4.85356 3.41238 4.64054 3.27821C4.44769 3.1629 4.23374 3.08728 4.01126 3.0558C3.78878 3.02431 3.56226 3.0376 3.34498 3.09488C3.1282 3.15091 2.92498 3.25017 2.74751 3.38669C2.57003 3.5232 2.42197 3.69417 2.31221 3.88932L0.90665 6.33377C0.681333 6.72412 0.61913 7.18761 0.733553 7.62356C0.847975 8.05951 1.12978 8.43271 1.51776 8.6621C1.74231 8.77944 1.93149 8.95457 2.06577 9.16942C2.20005 9.38427 2.27458 9.63106 2.28165 9.88432C2.30682 10.167 2.2477 10.4507 2.11175 10.6998C1.97579 10.9489 1.7691 11.1521 1.51776 11.2838C1.12978 11.5132 0.847975 11.8864 0.733553 12.3223C0.61913 12.7583 0.681333 13.2217 0.90665 13.6121L2.31221 16.0565C2.41615 16.2619 2.56163 16.4435 2.73941 16.5897C2.91719 16.7359 3.1234 16.8436 3.34498 16.906C3.5719 16.9676 3.80886 16.9831 4.04187 16.9516C4.27489 16.9201 4.49923 16.8423 4.70165 16.7227C4.93849 16.5899 5.20789 16.5263 5.47911 16.5393C5.75033 16.5523 6.01244 16.6412 6.23554 16.796C6.43908 16.9212 6.60716 17.0965 6.72376 17.3051C6.84037 17.5137 6.90161 17.7487 6.90165 17.9877C6.88985 18.2276 6.92834 18.4673 7.01463 18.6915C7.10093 18.9156 7.23313 19.1193 7.40276 19.2893C7.56207 19.4511 7.75251 19.5789 7.96257 19.665C8.17264 19.7511 8.39797 19.7938 8.62498 19.7904H11.4116C11.8633 19.7888 12.2961 19.6087 12.6155 19.2893C12.9349 18.9699 13.115 18.5371 13.1167 18.0854C13.106 17.8246 13.1662 17.5658 13.2911 17.3366C13.4159 17.1073 13.6006 16.9163 13.8255 16.7838C14.0458 16.6214 14.3097 16.5289 14.5831 16.518C14.8565 16.5071 15.1269 16.5784 15.3594 16.7227C15.5528 16.836 15.7666 16.9101 15.9886 16.9407C16.2107 16.9713 16.4365 16.9579 16.6534 16.9011C16.8702 16.8444 17.0737 16.7454 17.2522 16.6099C17.4308 16.4744 17.5808 16.3051 17.6939 16.1115L19.0933 13.6671C19.2063 13.4725 19.2798 13.2576 19.3096 13.0346C19.3394 12.8116 19.3249 12.585 19.267 12.3676C19.2091 12.1502 19.1089 11.9463 18.9722 11.7677C18.8354 11.5891 18.6648 11.4391 18.47 11.3265ZM18.2866 13.1599L16.8872 15.6043C16.7818 15.7824 16.6106 15.9119 16.4105 15.9649C16.3088 15.9952 16.2018 16.0038 16.0965 15.9901C15.9913 15.9764 15.89 15.9407 15.7994 15.8854C15.4261 15.6532 14.994 15.5327 14.5544 15.5382C14.1148 15.5436 13.6859 15.6747 13.3183 15.916C12.9519 16.1317 12.6499 16.4416 12.4436 16.8134C12.2373 17.1851 12.1342 17.6054 12.145 18.0304C12.1455 18.1316 12.1258 18.2318 12.0869 18.3252C12.0481 18.4187 11.991 18.5033 11.9189 18.5743C11.8471 18.6474 11.7615 18.7056 11.6671 18.7454C11.5727 18.7853 11.4713 18.8061 11.3689 18.8065H8.60665C8.50418 18.8061 8.40283 18.7853 8.30843 18.7454C8.21403 18.7056 8.12846 18.6474 8.05665 18.5743C7.9745 18.4903 7.9117 18.3893 7.87264 18.2785C7.83358 18.1677 7.81921 18.0496 7.83054 17.9327C7.83516 17.5103 7.72359 17.0949 7.50804 16.7316C7.29249 16.3684 6.98124 16.0715 6.60832 15.8732C6.26317 15.6665 5.86967 15.5542 5.4674 15.5478C5.06512 15.5414 4.66824 15.641 4.31665 15.8365C4.21392 15.9036 4.09885 15.9494 3.97818 15.9715C3.85752 15.9935 3.73366 15.9913 3.61387 15.9649C3.41638 15.9099 3.24777 15.7807 3.14332 15.6043L1.74387 13.1599C1.64164 12.9822 1.61383 12.7714 1.66649 12.5733C1.71916 12.3752 1.84803 12.2061 2.02498 12.1027C2.41464 11.8892 2.73609 11.57 2.95232 11.1819C3.16855 10.7937 3.27077 10.3524 3.24721 9.90877C3.25002 9.48517 3.13782 9.06876 2.92258 8.70392C2.70733 8.33908 2.39711 8.03949 2.02498 7.8371C1.84803 7.7337 1.71916 7.56451 1.66649 7.36644C1.61383 7.16837 1.64164 6.95751 1.74387 6.77988L3.14332 4.33543C3.24777 4.15904 3.41638 4.02985 3.61387 3.97488C3.71571 3.94533 3.82256 3.93713 3.92772 3.9508C4.03288 3.96447 4.13408 3.99971 4.22498 4.05432C4.59835 4.28651 5.03036 4.40701 5.47 4.40159C5.90965 4.39618 6.33856 4.26508 6.70609 4.02377C7.0725 3.80803 7.37453 3.4982 7.58084 3.12641C7.78716 2.75461 7.89025 2.33439 7.87943 1.90932C7.8789 1.80816 7.89864 1.70792 7.93748 1.61451C7.97631 1.5211 8.03345 1.43641 8.10554 1.36543C8.17735 1.29234 8.26292 1.23418 8.35732 1.19432C8.45172 1.15446 8.55307 1.1337 8.65554 1.13321H11.4422C11.5447 1.1337 11.646 1.15446 11.7404 1.19432C11.8348 1.23418 11.9204 1.29234 11.9922 1.36543C12.0643 1.43641 12.1214 1.5211 12.1603 1.61451C12.1991 1.70792 12.2188 1.80816 12.2183 1.90932C12.2018 2.33549 12.3018 2.75809 12.5074 3.13171C12.7131 3.50533 13.0167 3.81585 13.3855 4.02988C13.7622 4.25245 14.1917 4.36987 14.6292 4.36987C15.0666 4.36987 15.4961 4.25245 15.8728 4.02988C15.9634 3.97457 16.0646 3.93891 16.1699 3.92523C16.2752 3.91154 16.3821 3.92013 16.4839 3.95043C16.6839 4.0034 16.8551 4.1329 16.9605 4.31099L18.36 6.75543C18.4622 6.93307 18.49 7.14393 18.4374 7.34199C18.3847 7.54006 18.2558 7.70926 18.0789 7.81266C17.6892 8.02612 17.3678 8.3453 17.1515 8.73343C16.9353 9.12156 16.8331 9.56287 16.8566 10.0065C16.8538 10.4301 16.966 10.8466 17.1813 11.2114C17.3965 11.5762 17.7067 11.8758 18.0789 12.0782C18.1682 12.1354 18.2448 12.2102 18.3041 12.2981C18.3633 12.386 18.4039 12.4852 18.4234 12.5894C18.4429 12.6936 18.4408 12.8007 18.4173 12.9041C18.3937 13.0074 18.3493 13.1049 18.2866 13.1904V13.1599Z" stroke="#E9F4FF" stroke-width="0.4" mask="url(#path-1-outside-1_1257_8633)"/>
<path d="M9.99979 10.5648C10.6041 10.5673 11.1955 10.3903 11.6991 10.0562C12.2027 9.72217 12.5958 9.24607 12.8286 8.68831C13.0613 8.13054 13.1231 7.51624 13.0063 6.92327C12.8895 6.3303 12.5992 5.78538 12.1723 5.35758C11.7454 4.92978 11.2011 4.63838 10.6084 4.52032C10.0156 4.40226 9.40119 4.46285 8.84295 4.69442C8.2847 4.92598 7.80779 5.3181 7.47267 5.82104C7.13758 6.32393 6.95935 6.91498 6.96055 7.51928M9.99979 10.5648C9.60018 10.5648 9.2045 10.486 8.83539 10.3329C8.46622 10.1797 8.13087 9.95528 7.84855 9.67237C7.56623 9.38946 7.34248 9.05365 7.1901 8.68415C7.03775 8.31473 6.95975 7.91888 6.96055 7.51928M9.99979 10.5648C9.99986 10.5648 9.99993 10.5648 10 10.5648L10 10.4648L9.99958 10.5648C9.99965 10.5648 9.99972 10.5648 9.99979 10.5648ZM6.96055 7.51928C6.96055 7.51921 6.96055 7.51914 6.96055 7.51907L7.06055 7.51928L6.96055 7.51948C6.96055 7.51941 6.96055 7.51935 6.96055 7.51928ZM10.0003 5.5965L10.0006 5.5965C10.3814 5.5942 10.7543 5.70501 11.072 5.91488C11.3897 6.12476 11.638 6.42424 11.7853 6.77537C11.9326 7.12651 11.9723 7.51347 11.8995 7.88722C11.8266 8.26096 11.6444 8.60465 11.3759 8.87472C11.1075 9.14479 10.7649 9.32908 10.3916 9.40421C10.0183 9.47935 9.63113 9.44196 9.27911 9.29677C8.92709 9.15159 8.62611 8.90516 8.41431 8.58871C8.20252 8.27226 8.08945 7.90006 8.08944 7.51927L8.08944 7.51897C8.08868 7.26727 8.1375 7.01789 8.23311 6.78505C8.32873 6.55222 8.46927 6.3405 8.64671 6.16198C8.82415 5.98346 9.03502 5.84164 9.26726 5.74462C9.49951 5.64759 9.7486 5.59726 10.0003 5.5965ZM7.98944 7.51928C7.98864 7.25444 8.04001 6.99205 8.14061 6.74707C8.24122 6.50208 8.38909 6.27932 8.57579 6.09149C8.76248 5.90365 8.98435 5.75443 9.22872 5.65235C9.47308 5.55026 9.73517 5.4973 10 5.4965L7.98944 7.51928Z" fill="#E9F4FF" stroke="#E9F4FF" stroke-width="0.2"/>
<path d="M5.71749 13.7308L5.9122 13.686C5.91143 13.6818 5.91143 13.6776 5.9122 13.6735L5.71749 13.6286C5.70823 13.6621 5.70823 13.6974 5.71749 13.7308ZM5.91025 13.6819L5.90221 13.6797L5.91025 13.6775C5.91065 13.6789 5.91065 13.6805 5.91025 13.6819Z" fill="#E9F4FF" stroke="#E9F4FF" stroke-width="0.2"/>
<path d="M13.4222 14.0394C13.4991 14.1157 13.6012 14.1613 13.7094 14.1678M13.4222 14.0394C13.3762 14.0015 13.3392 13.9539 13.3139 13.9001C13.2885 13.8462 13.2754 13.7873 13.2755 13.7278C13.2763 13.5443 13.2408 13.3625 13.1712 13.1927C13.1015 13.0229 12.999 12.8686 12.8696 12.7386C12.7401 12.6086 12.5862 12.5054 12.4168 12.435C12.2473 12.3646 12.0656 12.3283 11.8822 12.3283L13.7094 14.1678M13.4222 14.0394L13.3518 14.1105C13.3529 14.1116 13.3539 14.1126 13.355 14.1137M13.4222 14.0394L13.3585 14.1166C13.3573 14.1156 13.3562 14.1146 13.355 14.1137M13.7094 14.1678H13.7583H13.7094ZM13.355 14.1137C13.4489 14.2051 13.5725 14.2598 13.7034 14.2676L13.7034 14.2678H13.7094H13.7583V14.2679L13.7635 14.2676C13.908 14.26 14.0441 14.1972 14.1436 14.0922C14.2431 13.9871 14.2985 13.8479 14.2983 13.7032L14.2983 13.7025C14.2932 13.0612 14.034 12.4481 13.5776 11.9976C13.1212 11.5472 12.5048 11.2961 11.8636 11.2994M13.355 14.1137C13.2993 14.0669 13.2544 14.0085 13.2234 13.9426C13.1917 13.8754 13.1754 13.802 13.1755 13.7276L13.1755 13.7273C13.1762 13.557 13.1433 13.3882 13.0787 13.2307C13.014 13.0731 12.9189 12.9298 12.7987 12.8091C12.6785 12.6884 12.5357 12.5927 12.3784 12.5273C12.2211 12.462 12.0525 12.4283 11.8822 12.4283H8.1666H8.16658C7.82423 12.4283 7.49555 12.5627 7.25135 12.8027C7.00715 13.0426 6.86698 13.3689 6.86103 13.7112L6.86097 13.7143L6.86092 13.7143C6.85378 13.8604 6.79255 13.9986 6.68914 14.102C6.58573 14.2054 6.44755 14.2666 6.30148 14.2738L6.2966 14.274V14.2739C6.22247 14.2739 6.14908 14.2593 6.08059 14.2309C6.01211 14.2026 5.94989 14.161 5.89747 14.1086C5.84506 14.0562 5.80348 13.9939 5.77512 13.9254C5.74675 13.857 5.73215 13.7836 5.73215 13.7094V13.7084H5.73216C5.73887 13.0672 5.99832 12.4545 6.45414 12.0034C6.90996 11.5524 7.52534 11.2994 8.1666 11.2994V11.3994L8.1666 11.2994H11.8636M11.8636 11.2994H11.8638V11.3994L11.8633 11.2994C11.8634 11.2994 11.8635 11.2994 11.8636 11.2994Z" fill="#E9F4FF" stroke="#E9F4FF" stroke-width="0.2"/>
</svg>
