<svg width="40" height="39" viewBox="0 0 40 39" fill="none" xmlns="http://www.w3.org/2000/svg">
<path d="M26.7154 26.8124C26.7207 27.8211 26.4533 28.8134 25.9401 29.6891C25.4268 30.5648 24.686 31.293 23.7923 31.8004C22.8987 32.3078 21.8838 32.5765 20.8498 32.5796C19.8159 32.5826 18.7993 32.3199 17.9025 31.8177C17.0058 31.3156 16.2605 30.5917 15.7418 29.719C15.2232 28.8463 14.9496 27.8556 14.9488 26.8468C14.9479 25.838 15.2198 24.8469 15.737 23.9733C16.2542 23.0998 16.9982 22.3748 17.894 21.8713C18.0121 21.8041 18.1099 21.708 18.1779 21.5928C18.2459 21.4776 18.2818 21.3471 18.282 21.2144C18.282 21.2143 18.282 21.2143 18.282 21.2143M26.7154 26.8124L23.332 10.5625C23.332 9.91603 23.0686 9.29605 22.5998 8.83893C22.131 8.38181 21.4951 8.125 20.832 8.125C20.169 8.125 19.5331 8.38181 19.0643 8.83893C18.5954 9.29605 18.332 9.91603 18.332 10.5625V21.2144L18.282 21.2143M26.7154 26.8124C26.7158 25.8082 26.4433 24.822 25.9258 23.954C25.4084 23.0861 24.6645 22.3675 23.7699 21.8712M26.7154 26.8124L23.7699 21.8712M26.7154 26.8124C26.7154 26.8124 26.7154 26.8125 26.7154 26.8125L26.6654 26.8125L26.7154 26.8122C26.7154 26.8123 26.7154 26.8123 26.7154 26.8124ZM18.282 21.2143L18.282 10.5625C18.282 9.90236 18.551 9.26952 19.0294 8.80313C19.5077 8.33678 20.1561 8.075 20.832 8.075C21.5079 8.075 22.1564 8.33678 22.6347 8.80313C23.1131 9.26952 23.382 9.90236 23.382 10.5625V21.2143M18.282 21.2143H23.382M23.382 21.2143C23.3823 21.3471 23.4181 21.4776 23.4861 21.5928C23.5541 21.708 23.6519 21.804 23.7699 21.8712M23.382 21.2143L23.7696 21.871C23.7697 21.8711 23.7698 21.8711 23.7699 21.8712M16.6927 20.8061L16.7154 20.7914V20.7642V10.5625C16.7154 9.49873 17.1488 8.47827 17.9207 7.72568C18.6926 6.97304 19.7398 6.55 20.832 6.55C21.9242 6.55 22.9715 6.97304 23.7434 7.72568C24.5153 8.47827 24.9487 9.49873 24.9487 10.5625V20.7642V20.7914L24.9714 20.8061C26.3004 21.6719 27.3083 22.9313 27.8466 24.3981C28.3849 25.8649 28.4252 27.4615 27.9614 28.9522C27.4976 30.443 26.5543 31.7491 25.2705 32.6774C23.9867 33.6057 22.4306 34.1069 20.832 34.1069C19.2334 34.1069 17.6773 33.6057 16.3936 32.6774C15.1098 31.7491 14.1665 30.443 13.7027 28.9522C13.2389 27.4615 13.2791 25.8649 13.8174 24.3981C14.3557 22.9313 15.3637 21.6719 16.6927 20.8061ZM21.6154 23.6779V23.7168L21.6532 23.7264C22.4272 23.9212 23.1015 24.3846 23.5498 25.0292C23.9981 25.6738 24.1898 26.4554 24.0892 27.2277C23.9886 28 23.6025 28.7103 23.003 29.2253C22.4034 29.7404 21.6315 30.0247 20.832 30.0247C20.0325 30.0247 19.2607 29.7404 18.6611 29.2253C18.0615 28.7103 17.6755 28 17.5748 27.2277C17.4742 26.4554 17.6659 25.6738 18.1142 25.0292C18.5626 24.3846 19.2369 23.9212 20.0109 23.7264L20.0487 23.7168V23.6779V10.5625C20.0487 10.3607 20.1309 10.1669 20.2777 10.0238C20.4245 9.88063 20.6239 9.8 20.832 9.8C21.0402 9.8 21.2396 9.88063 21.3864 10.0238C21.5332 10.1669 21.6154 10.3607 21.6154 10.5625V23.6779ZM19.8788 28.2055C20.1611 28.3894 20.4928 28.4875 20.832 28.4875C21.2869 28.4875 21.7234 28.3113 22.0454 27.9974C22.3675 27.6833 22.5487 27.2572 22.5487 26.8125C22.5487 26.4809 22.4478 26.1569 22.2591 25.8814C22.0703 25.606 21.8021 25.3915 21.4886 25.2648C21.175 25.1382 20.8301 25.1051 20.4974 25.1696C20.1646 25.2342 19.8588 25.3935 19.6186 25.6277C19.3784 25.8618 19.2147 26.1603 19.1484 26.4855C19.0821 26.8107 19.1161 27.1477 19.2462 27.4539C19.3763 27.7601 19.5965 28.0216 19.8788 28.2055ZM29.9487 10.5625C29.9487 10.7643 29.8665 10.9581 29.7197 11.1012C29.5729 11.2444 29.3735 11.325 29.1654 11.325H27.4987C27.2905 11.325 27.0912 11.2444 26.9443 11.1012C26.7976 10.9581 26.7154 10.7643 26.7154 10.5625C26.7154 10.3607 26.7976 10.1669 26.9443 10.0238C27.0912 9.88063 27.2905 9.8 27.4987 9.8H29.1654C29.3735 9.8 29.5729 9.88063 29.7197 10.0238C29.8665 10.1669 29.9487 10.3607 29.9487 10.5625ZM29.9487 13.8125C29.9487 14.0143 29.8665 14.2081 29.7197 14.3512C29.5729 14.4944 29.3735 14.575 29.1654 14.575H27.4987C27.2905 14.575 27.0912 14.4944 26.9443 14.3512C26.7976 14.2081 26.7154 14.0143 26.7154 13.8125C26.7154 13.6107 26.7976 13.4169 26.9443 13.2738C27.0912 13.1306 27.2905 13.05 27.4987 13.05H29.1654C29.3735 13.05 29.5729 13.1306 29.7197 13.2738C29.8665 13.4169 29.9487 13.6107 29.9487 13.8125ZM29.1654 17.825H27.4987C27.2905 17.825 27.0912 17.7444 26.9443 17.6012C26.7976 17.4581 26.7154 17.2643 26.7154 17.0625C26.7154 16.8607 26.7976 16.6669 26.9443 16.5238C27.0912 16.3806 27.2905 16.3 27.4987 16.3H29.1654C29.3735 16.3 29.5729 16.3806 29.7197 16.5238C29.8665 16.6669 29.9487 16.8607 29.9487 17.0625C29.9487 17.2643 29.8665 17.4581 29.7197 17.6012C29.5729 17.7444 29.3735 17.825 29.1654 17.825Z" fill="#F0A315" stroke="white" stroke-width="0.1"/>
</svg>
