<svg width="16" height="19" viewBox="0 0 16 19" fill="none" xmlns="http://www.w3.org/2000/svg">
<path fill-rule="evenodd" clip-rule="evenodd" d="M1.96809 0C1.44638 0 0.945984 0.207703 0.576844 0.576844C0.208031 0.945656 0 1.44867 0 1.97072V16.4066C0 16.9286 0.208031 17.4316 0.576844 17.8005C0.945984 18.1696 1.44638 18.3773 1.96809 18.3773H13.7819C14.304 18.3773 14.807 18.1696 15.1758 17.8005C15.5449 17.4316 15.75 16.9286 15.75 16.4066V1.97072C15.75 1.44867 15.5449 0.945656 15.1758 0.576844C14.807 0.207703 14.304 0 13.7819 0H1.96809ZM1.96809 1.31381H13.7819C13.9571 1.31381 14.1232 1.38272 14.2465 1.50609C14.3696 1.62914 14.4388 1.79517 14.4388 1.97072V16.4066C14.4388 16.5821 14.3696 16.7482 14.2465 16.8712C14.1235 16.9946 13.9571 17.0635 13.7819 17.0635H1.96809C1.79288 17.0635 1.62947 16.9946 1.50609 16.8712C1.38305 16.7482 1.31381 16.5821 1.31381 16.4066V1.97072C1.31381 1.79517 1.38305 1.62914 1.50609 1.50609C1.62947 1.38272 1.79288 1.31381 1.96809 1.31381Z" fill="#E9F4FF"/>
<path fill-rule="evenodd" clip-rule="evenodd" d="M5.57841 4.5957C5.21912 4.59538 4.92282 4.89036 4.92151 5.24999C4.92151 5.61027 5.21781 5.90689 5.57776 5.90689H10.1722C10.5321 5.90689 10.8284 5.61059 10.8284 5.25031C10.8274 4.89069 10.5311 4.59538 10.1715 4.5957H5.57841Z" fill="#E9F4FF"/>
<path fill-rule="evenodd" clip-rule="evenodd" d="M5.57841 8.53125H5.57776C5.21781 8.53125 4.92151 8.82755 4.92151 9.1875V9.18881C4.92151 9.54909 5.21781 9.84506 5.57776 9.84506H10.1722C10.5321 9.84506 10.8284 9.54909 10.8284 9.18881V9.1875C10.8284 8.82755 10.5321 8.53125 10.1722 8.53125H10.1715H5.57841Z" fill="#E9F4FF"/>
<path fill-rule="evenodd" clip-rule="evenodd" d="M5.57841 12.4707H5.57776C5.21781 12.4707 4.92151 12.767 4.92151 13.127V13.1276C4.92282 13.4872 5.21912 13.7822 5.57841 13.7819H10.1715C10.5311 13.7822 10.8274 13.4872 10.8284 13.1276V13.127C10.8284 12.767 10.5321 12.4707 10.1722 12.4707H10.1715H5.57841Z" fill="#E9F4FF"/>
</svg>
