<svg width="18" height="14" viewBox="0 0 18 14" fill="none" xmlns="http://www.w3.org/2000/svg">
<path d="M17.28 4.21975L13.28 0.21975C12.987 -0.07325 12.512 -0.07325 12.219 0.21975C11.926 0.51275 11.926 0.98775 12.219 1.28075L14.939 4.00075H0.75C0.336 4.00075 0 4.33675 0 4.75075C0 5.16475 0.336 5.50075 0.75 5.50075H16.75C17.053 5.50075 17.327 5.31775 17.443 5.03775C17.559 4.75775 17.495 4.43375 17.28 4.21975Z" fill="#E9F4FF"/>
<path d="M16.7501 7.99905H0.750077C0.447077 7.99905 0.173077 8.18205 0.0570767 8.46205C-0.0589233 8.74205 0.00507681 9.06505 0.220077 9.27905L4.22008 13.279C4.36608 13.425 4.55808 13.499 4.75008 13.499C4.94208 13.499 5.13408 13.426 5.28008 13.279C5.57308 12.986 5.57308 12.511 5.28008 12.218L2.56008 9.49805H16.7491C17.1631 9.49805 17.4991 9.16205 17.4991 8.74805C17.4991 8.33405 17.1631 7.99805 16.7491 7.99805L16.7501 7.99905Z" fill="#E9F4FF"/>
</svg>
