<svg width="36" height="34" viewBox="0 0 36 34" fill="none" xmlns="http://www.w3.org/2000/svg">
<path d="M2.88672 22.2263C2.89286 27.3377 7.35277 31.48 12.8563 31.4857L12.8562 30.3963C8.00027 30.3912 4.06506 26.7363 4.05956 22.2263C4.05956 21.9255 3.79701 21.6816 3.47314 21.6816C3.14927 21.6816 2.88672 21.9255 2.88672 22.2263ZM13.4927 30.941C13.4927 30.6092 13.2043 30.3464 12.8563 30.3463C8.02436 30.3412 4.11503 26.7053 4.10956 22.2262C4.10953 21.8944 3.82106 21.6316 3.47314 21.6316C3.1252 21.6316 2.83672 21.8945 2.83672 22.2263L2.83672 22.2263C2.84289 27.3687 7.32868 31.53 12.8563 31.5357H12.8563C13.2042 31.5357 13.4927 31.2729 13.4927 30.941Z" fill="#8247E3" stroke="#8247E3" stroke-width="0.1"/>
<path d="M0.492977 22.2263C0.487869 26.3833 2.9027 30.216 6.80286 32.248C10.6939 34.2752 15.4584 34.1953 19.2675 32.0406C23.0345 34.3913 27.9956 34.2554 31.6075 31.6993C35.2282 29.137 36.6868 24.7127 35.2283 20.7043C33.7701 16.6969 29.7229 14.0034 25.1737 14.0063C24.4953 14.007 23.8186 14.0683 23.1529 14.1892C20.0465 7.59672 14.3905 1.92833 13.7415 1.28796L13.7415 1.28794L13.7402 1.28672C13.2511 0.83776 12.4656 0.83776 11.9766 1.28672L11.9765 1.2867L11.9753 1.2879C11.3872 1.86602 8.51792 4.75467 5.79533 8.66994C3.07399 12.5834 0.492988 17.5313 0.492977 22.2263ZM0.492977 22.2263C0.492977 22.2263 0.492977 22.2263 0.492977 22.2263L0.542977 22.2263H0.492977C0.492977 22.2263 0.492977 22.2263 0.492977 22.2263ZM12.8584 32.525C6.73142 32.5187 1.77262 27.9081 1.76582 22.2262C1.76584 17.7739 4.25947 13.0265 6.90133 9.24712C9.49108 5.54227 12.2171 2.77622 12.8543 2.1438C13.6254 2.90632 18.9176 8.26762 21.9019 14.4906C18.2719 15.5793 15.5493 18.3998 14.7822 21.8771C14.0163 25.3486 15.3194 28.9312 18.1864 31.2595C16.5542 32.0913 14.7214 32.5269 12.8584 32.525ZM25.1737 32.525C20.0156 32.525 15.8406 28.6423 15.8406 23.8603C15.8406 19.0783 20.0156 15.1956 25.1737 15.1956C30.3318 15.1956 34.5068 19.0783 34.5068 23.8603C34.5007 28.6399 30.3292 32.5193 25.1737 32.525Z" fill="#8247E3" stroke="#8247E3" stroke-width="0.1"/>
<path d="M16.9109 23.8597V23.8598C16.9109 24.1916 17.1994 24.4544 17.5474 24.4544C17.8953 24.4544 18.1838 24.1916 18.1838 23.8598C18.1838 20.281 21.3086 17.3737 25.1711 17.3737C29.0337 17.3737 32.1585 20.281 32.1585 23.8598C32.1585 24.1916 32.447 24.4544 32.7949 24.4544C33.1429 24.4544 33.4313 24.1916 33.4313 23.8598V23.8597C33.4266 19.6192 29.7276 16.1889 25.1712 16.1844L25.1712 16.1844C20.6147 16.1889 16.9158 19.6192 16.9109 23.8597Z" fill="#8247E3" stroke="#8247E3" stroke-width="0.1"/>
<path d="M27.5547 24.1502L27.5547 24.1501C27.7056 23.0459 26.9588 22.0133 25.8144 21.7203V18.9587C25.8144 18.6269 25.5259 18.3641 25.1779 18.3641C24.83 18.3641 24.5415 18.6269 24.5415 18.9587V21.7203C23.3972 22.0133 22.6503 23.0459 22.8014 24.1502C22.954 25.266 23.9746 26.0975 25.178 26.0975C26.3814 26.0975 27.402 25.266 27.5547 24.1502ZM25.1779 24.9C24.5542 24.9 24.055 24.4313 24.055 23.8607C24.055 23.2901 24.5542 22.8214 25.1779 22.8214C25.8017 22.8214 26.3009 23.2901 26.3009 23.8607C26.3009 24.4313 25.8016 24.9 25.1779 24.9Z" fill="#8247E3" stroke="#8247E3" stroke-width="0.1"/>
</svg>
