<svg width="23" height="23" viewBox="0 0 23 23" fill="none" xmlns="http://www.w3.org/2000/svg">
<path d="M22.4092 2.06003C21.8524 1.32183 21.0028 0.898482 20.0781 0.898482H19.6867V0.673873C19.6867 0.30174 19.385 4.49219e-05 19.0129 4.49219e-05C18.6407 4.49219e-05 18.3391 0.30174 18.3391 0.673873V2.47075C18.3391 2.84288 18.6407 3.14458 19.0129 3.14458C19.385 3.14458 19.6867 2.84288 19.6867 2.47075V2.24614H20.0781C20.576 2.24614 21.0335 2.47412 21.3333 2.87159C21.6331 3.26905 21.7266 3.7716 21.5898 4.25033L19.8015 10.5098C19.3024 12.2566 17.6851 13.4766 15.8684 13.4766C14.0518 13.4766 12.4345 12.2566 11.9354 10.5098L10.1471 4.25028C10.0103 3.77155 10.1038 3.26901 10.4036 2.87154C10.7034 2.47403 11.1609 2.24609 11.6588 2.24609H12.0502V2.4707C12.0502 2.84284 12.3519 3.14453 12.724 3.14453C13.0961 3.14453 13.3978 2.84284 13.3978 2.4707V0.673828C13.3978 0.301695 13.0961 0 12.724 0C12.3519 0 12.0502 0.301695 12.0502 0.673828V0.898438H11.6588C10.7342 0.898438 9.88451 1.32183 9.32772 2.05998C8.77088 2.79818 8.59726 3.73144 8.85129 4.62048L10.6397 10.88C10.967 12.0255 11.6427 13.0101 12.5937 13.7276C12.7976 13.8814 13.0102 14.0186 13.2295 14.1409L15.1947 18.7794V19.2657C15.1947 20.5817 14.1241 21.6523 12.8081 21.6523C11.4922 21.6523 10.4216 20.5817 10.4216 19.2657V14.6445C10.4216 12.5143 8.68854 10.7812 6.55841 10.7812C4.42827 10.7812 2.69524 12.5143 2.69524 14.6445V16.2397C1.15931 16.5527 0 17.9139 0 19.541C0 21.3988 1.51135 22.9102 3.36905 22.9102C5.22674 22.9102 6.73809 21.3988 6.73809 19.541C6.73809 17.914 5.57878 16.5527 4.04285 16.2397V14.6445C4.04285 13.2574 5.17135 12.1289 6.55841 12.1289C7.94547 12.1289 9.07396 13.2574 9.07396 14.6445V19.2657C9.07396 21.3248 10.7491 23 12.8081 23C14.8671 23 16.5423 21.3248 16.5423 19.2657V18.7794L18.5075 14.1409C18.7268 14.0186 18.9394 13.8814 19.1432 13.7276C20.0943 13.0102 20.77 12.0255 21.0973 10.88L22.8857 4.62048C23.1397 3.73148 22.966 2.79818 22.4092 2.06003ZM5.39047 19.541C5.39047 20.6557 4.48366 21.5625 3.36905 21.5625C2.25443 21.5625 1.34762 20.6557 1.34762 19.541C1.34762 18.4264 2.25443 17.5195 3.36905 17.5195C4.48366 17.5195 5.39047 18.4264 5.39047 19.541ZM15.8685 16.9153L14.9498 14.7468C15.2506 14.7978 15.5575 14.8242 15.8685 14.8242C16.1795 14.8242 16.4864 14.7978 16.7872 14.7468L15.8685 16.9153Z" fill="#E9F4FF"/>
</svg>
