<svg width="37" height="31" viewBox="0 0 37 31" fill="none" xmlns="http://www.w3.org/2000/svg">
<path d="M18.4352 4.02721L18.4969 4.10197L18.5586 4.02725C19.4874 2.90275 20.5495 2.00285 21.7295 1.3415C23.2237 0.504339 24.8405 0.08 26.5353 0.08C28.746 0.08 30.9595 0.835331 32.7664 2.20728C34.6213 3.61571 35.9246 5.53881 36.5361 7.76925C37.2003 10.1922 37.3319 14.0733 34.1566 18.7806C31.2152 23.1408 26.1119 27.1879 18.9793 30.8055L18.9792 30.8055C18.8291 30.8818 18.6631 30.92 18.4966 30.92C18.3302 30.92 18.1642 30.8816 18.0139 30.8055C10.8832 27.1882 5.78167 23.1411 2.84147 18.7806C-0.332509 14.0733 -0.199983 10.1919 0.464138 7.76899C1.07569 5.5388 2.37871 3.61571 4.23299 2.20728C6.03966 0.835325 8.25198 0.08 10.4621 0.08C13.5394 0.08 16.3235 1.46756 18.4352 4.02721ZM18.4598 28.9122L18.4966 28.9313L18.5334 28.9123C27.3388 24.3556 31.5323 19.8327 33.4345 16.1205C35.3375 12.4067 34.943 9.51273 34.5899 8.22497C33.575 4.52361 30.2641 1.93598 26.5353 1.93598C23.711 1.93598 21.1623 3.47069 19.3566 6.24186L19.3566 6.24187C19.1758 6.5194 18.8499 6.69122 18.4963 6.69122C18.1425 6.69122 17.8171 6.51919 17.6366 6.24165L17.6366 6.24162C15.8324 3.47071 13.285 1.93598 10.4621 1.93598C6.73476 1.93598 3.42524 4.52363 2.41034 8.22496C2.10984 9.32051 1.77921 11.5807 2.86012 14.5199L2.87938 14.5723H2.9352H6.22075H6.26857L6.29121 14.5302L8.31352 10.7686L8.31353 10.7686C8.48208 10.4548 8.82898 10.2536 9.21244 10.2536C9.59558 10.2536 9.94251 10.4548 10.1114 10.7686C10.1114 10.7686 10.1114 10.7686 10.1114 10.7686L13.7853 17.6026L13.8558 17.7336L13.9263 17.6026L17.6005 10.7686L17.6005 10.7686C17.7691 10.4548 18.116 10.2536 18.4991 10.2536C18.8826 10.2536 19.2295 10.4548 19.3983 10.7686C19.3983 10.7686 19.3984 10.7686 19.3984 10.7686L21.4204 14.5302L21.443 14.5723H21.4908H29.0406C29.6005 14.5723 30.0443 14.9931 30.0443 15.5001C30.0443 16.0071 29.6005 16.428 29.0406 16.428H20.821C20.4378 16.428 20.0909 16.2268 19.922 15.913L18.5696 13.3974L18.4991 13.2664L18.4287 13.3974L14.7547 20.2314L14.7547 20.2314C14.5861 20.5452 14.2389 20.7466 13.8558 20.7466C13.4726 20.7466 13.1254 20.5452 12.9569 20.2314L12.9569 20.2314L9.2829 13.3974L9.21244 13.2664L9.14198 13.3974L7.78953 15.913C7.62098 16.2265 7.27405 16.428 6.89062 16.428H3.86082H3.72542L3.79075 16.5466C5.79031 20.1764 9.99094 24.5288 18.4598 28.9122Z" fill="#DA4955" stroke="white" stroke-width="0.16"/>
</svg>
