<svg width="21" height="21" viewBox="0 0 21 21" fill="none" xmlns="http://www.w3.org/2000/svg">
<path fill-rule="evenodd" clip-rule="evenodd" d="M4.2 10.5H5.25C7.56959 10.5 9.45 12.3804 9.45 14.7V16.8C9.45 19.1196 7.56959 21 5.25 21H4.2C1.8804 21 0 19.1196 0 16.8V14.7C0 12.3804 1.8804 10.5 4.2 10.5ZM4.19998 12.6C3.04018 12.6 2.09998 13.5402 2.09998 14.7V16.8C2.09998 17.9598 3.04018 18.9 4.19998 18.9H5.24997C6.40977 18.9 7.34997 17.9598 7.34997 16.8V14.7C7.34997 13.5402 6.40977 12.6 5.24997 12.6H4.19998ZM3.675 0C5.70464 0 7.35 1.64535 7.35 3.675V4.725C7.35 6.75465 5.70464 8.4 3.675 8.4C1.64535 8.4 0 6.75465 0 4.725V3.675C0 1.64535 1.64535 0 3.675 0ZM3.67497 2.09999C2.80513 2.09999 2.09998 2.80514 2.09998 3.67499V4.72499C2.09998 5.59484 2.80513 6.29999 3.67497 6.29999C4.54482 6.29999 5.24997 5.59484 5.24997 4.72499V3.67499C5.24997 2.80514 4.54482 2.09999 3.67497 2.09999ZM15.75 9.45002H16.8C19.1196 9.45002 21 11.3304 21 13.65V16.8C21 19.1196 19.1196 21 16.8 21H15.75C13.4305 21 11.55 19.1196 11.55 16.8V13.65C11.55 11.3304 13.4305 9.45002 15.75 9.45002ZM15.75 11.55C14.5902 11.55 13.65 12.4902 13.65 13.65V16.8C13.65 17.9598 14.5902 18.9 15.75 18.9H16.8C17.9598 18.9 18.9 17.9598 18.9 16.8V13.65C18.9 12.4902 17.9598 11.55 16.8 11.55H15.75ZM13.125 0H17.325C19.3546 0 21 1.64535 21 3.675C21 5.70465 19.3546 7.35 17.325 7.35H13.125C11.0954 7.35 9.45 5.70465 9.45 3.675C9.45 1.64535 11.0954 0 13.125 0ZM13.125 2.09999C12.2552 2.09999 11.55 2.80514 11.55 3.67499C11.55 4.54484 12.2552 5.24999 13.125 5.24999H17.325C18.1949 5.24999 18.9 4.54484 18.9 3.67499C18.9 2.80514 18.1949 2.09999 17.325 2.09999H13.125Z" fill="#E9F4FF"/>
</svg>
