<svg width="93" height="58" viewBox="0 0 93 58" fill="none" xmlns="http://www.w3.org/2000/svg">
<path d="M0 15C0 6.71573 6.71573 0 15 0H55C63.2843 0 70 6.71573 70 15V43C70 51.2843 63.2843 58 55 58H15C6.71573 58 0 51.2843 0 43V15Z" fill="#FFF7F7"/>
<path fill-rule="evenodd" clip-rule="evenodd" d="M27.2799 20.2802C31.0846 16.4754 36.8676 15.8607 41.313 18.4301C41.9307 18.7871 42.1419 19.5772 41.785 20.1948C41.428 20.8124 40.6379 21.0237 40.0203 20.6667C36.562 18.6679 32.0636 19.1499 29.1066 22.1069C25.5756 25.6379 25.5756 31.3628 29.1066 34.8938C32.0636 37.8507 36.562 38.3327 40.0203 36.3339C40.6379 35.977 41.428 36.1882 41.785 36.8059C42.1419 37.4235 41.9307 38.2135 41.313 38.5705C36.8676 41.1399 31.0846 40.5252 27.2799 36.7205C22.74 32.1807 22.74 24.82 27.2799 20.2802ZM43.6283 23.712C44.1327 23.2075 44.9506 23.2075 45.455 23.712L47.8978 26.1548C48.1284 26.3853 48.3529 26.6097 48.5275 26.8153C48.7192 27.0412 48.9253 27.3279 49.0469 27.7021C49.2154 28.2209 49.2154 28.7798 49.0469 29.2986C48.9253 29.6729 48.7192 29.9595 48.5275 30.1853C48.3529 30.3909 48.1284 30.6154 47.8978 30.8458L45.455 33.2886C44.9506 33.793 44.1327 33.793 43.6283 33.2886C43.1239 32.7842 43.1239 31.9664 43.6283 31.462L45.2983 29.792H35.5C34.7866 29.792 34.2083 29.2137 34.2083 28.5003C34.2083 27.7869 34.7866 27.2086 35.5 27.2086H45.2983L43.6283 25.5387C43.1239 25.0342 43.1239 24.2164 43.6283 23.712Z" fill="#DA4955"/>
</svg>
