<svg width="21" height="21" viewBox="0 0 21 21" fill="none" xmlns="http://www.w3.org/2000/svg">
<path d="M13.7308 11.9999C13.7308 12.2632 13.5821 12.5075 13.3388 12.643L9.30029 14.893C9.17251 14.9644 9.02856 15 8.88461 15C8.74737 15 8.61013 14.9677 8.48668 14.9025C8.23349 14.7696 8.07692 14.5202 8.07692 14.25V9.74992C8.07692 9.47965 8.23349 9.23026 8.48668 9.09733C8.73948 8.96402 9.05065 8.96769 9.30029 9.10685L13.3388 11.3569C13.5821 11.4924 13.7308 11.7366 13.7308 11.9999ZM21 9.74992V14.25C21 17.9718 17.7389 21 13.7308 21H7.26923C3.26114 21 0 17.9718 0 14.25V9.74992C0 6.21706 2.98941 3.74987 7.26923 3.74987H8.81969L6.63862 1.21824C6.35979 0.894873 6.41618 0.422824 6.76482 0.164277C7.11266 -0.0939033 7.62102 -0.0419009 7.89985 0.281466L10.5 3.29952L13.1002 0.281466C13.3786 -0.0429996 13.8873 -0.0935371 14.2352 0.164277C14.5838 0.422824 14.6402 0.894873 14.3614 1.21824L12.1803 3.74987H13.7308C18.0106 3.74987 21 6.21706 21 9.74992ZM19.3846 9.74992C19.3846 6.6415 16.5451 5.24989 13.7308 5.24989H7.26923C4.45493 5.24989 1.61538 6.6415 1.61538 9.74992V14.25C1.61538 17.1449 4.15165 19.5 7.26923 19.5H13.7308C16.8484 19.5 19.3846 17.1449 19.3846 14.25V9.74992Z" fill="white"/>
</svg>
