<svg width="31" height="31" viewBox="0 0 31 31" fill="none" xmlns="http://www.w3.org/2000/svg">
<path fill-rule="evenodd" clip-rule="evenodd" d="M7.27989 7.27973C11.0846 3.47496 16.8676 2.86023 21.313 5.42962C21.9307 5.78661 22.1419 6.57669 21.785 7.19431C21.428 7.81193 20.6379 8.02321 20.0203 7.66623C16.562 5.6674 12.0636 6.14943 9.10657 9.10642C5.57558 12.6374 5.57558 18.3623 9.10657 21.8933C12.0636 24.8502 16.562 25.3322 20.0203 23.3334C20.6379 22.9765 21.428 23.1877 21.785 23.8054C22.1419 24.423 21.9307 25.213 21.313 25.57C16.8676 28.1394 11.0846 27.5247 7.27989 23.72C2.74004 19.1802 2.74004 11.8196 7.27989 7.27973ZM23.6283 10.7115C24.1327 10.2071 24.9506 10.2071 25.455 10.7115L27.8978 13.1543C28.1284 13.3848 28.3529 13.6092 28.5275 13.8148C28.7192 14.0407 28.9253 14.3274 29.0469 14.7016C29.2154 15.2204 29.2154 15.7793 29.0469 16.2981C28.9253 16.6724 28.7192 16.959 28.5275 17.1848C28.3529 17.3904 28.1284 17.6149 27.8978 17.8454L25.455 20.2882C24.9506 20.7926 24.1327 20.7926 23.6283 20.2882C23.1239 19.7838 23.1239 18.9659 23.6283 18.4615L25.2983 16.7915H15.5C14.7866 16.7915 14.2083 16.2132 14.2083 15.4998C14.2083 14.7864 14.7866 14.2082 15.5 14.2082H25.2983L23.6283 12.5382C23.1239 12.0338 23.1239 11.2159 23.6283 10.7115Z" fill="#DA4955"/>
</svg>
