<svg width="33" height="31" viewBox="0 0 33 31" fill="none" xmlns="http://www.w3.org/2000/svg">
<mask id="path-1-inside-1_2315_37066" fill="white">
<path d="M27.721 8.82208C25.4385 5.95458 20.626 5.56708 20.626 8.39583C20.7051 9.47031 20.5532 10.5488 20.1791 11.5669C18.9485 10.3333 19.251 9.93938 19.251 0.645833C19.251 0.474548 19.1785 0.310277 19.0496 0.18916C18.9207 0.068043 18.7458 0 18.5635 0C18.3811 0 18.2063 0.068043 18.0773 0.18916C17.9484 0.310277 17.876 0.474548 17.876 0.645833V9.37104C17.876 11.7606 19.1685 12.4581 23.5203 16.5463C23.5818 16.6086 23.617 16.6899 23.6191 16.7749C23.6213 16.8599 23.5903 16.9427 23.532 17.0078C23.4738 17.0728 23.3922 17.1156 23.3027 17.1282C23.2132 17.1407 23.1219 17.1221 23.046 17.0758L17.6835 13.5625C17.3368 13.3346 16.924 13.2124 16.501 13.2124C16.0779 13.2124 15.6651 13.3346 15.3185 13.5625C9.66034 17.2825 9.81846 17.3406 9.48159 17.05C9.41273 16.9847 9.37411 16.8965 9.37411 16.8046C9.37411 16.7127 9.41273 16.6245 9.48159 16.5592L13.751 12.5679C14.2019 12.1443 14.5588 11.6406 14.8007 11.0862C15.0427 10.5319 15.1649 9.93788 15.1603 9.33875V0.645833C15.1603 0.474548 15.0879 0.310277 14.959 0.18916C14.83 0.068043 14.6552 0 14.4728 0C14.2905 0 14.1156 0.068043 13.9867 0.18916C13.8578 0.310277 13.7853 0.474548 13.7853 0.645833V9.37104C13.7872 10.1877 13.4549 10.9738 12.8572 11.5669C12.4755 10.5501 12.3119 9.47233 12.376 8.39583C12.376 5.64458 7.66659 5.92875 5.36346 8.71875C1.89242 12.9304 0.00645017 18.1045 0.000962852 23.4308C0.000962852 26.9506 -0.0677872 26.434 0.956588 29.3079C1.13162 29.805 1.47044 30.2368 1.92402 30.541C2.37761 30.8452 2.92244 31.0059 3.47971 31C4.80731 30.9802 6.09073 30.5488 7.13034 29.7729C10.1485 27.8677 13.751 27.6417 13.751 24.5417V16.1458C16.1572 14.5635 16.3703 14.2535 16.8928 14.5958L19.251 16.1458V24.5417C19.251 26.6213 21.011 27.6029 23.1216 28.4167C24.4059 28.9474 25.631 29.5964 26.7791 30.3542C28.7316 31.4069 31.3303 31.381 32.0453 29.3531C33.0972 26.3629 33.001 26.8667 33.001 23.4308C32.9964 18.1487 31.1409 13.0149 27.721 8.82208ZM12.376 24.5417C12.376 25.969 10.8772 26.6277 9.37159 27.1896C8.025 27.7352 6.73986 28.4059 5.53534 29.1917C4.40784 29.8052 2.67534 30.0765 2.26284 28.901C1.27971 26.1433 1.37596 26.7569 1.37596 23.4308C1.37894 18.4279 3.13812 13.5656 6.38096 9.59708C6.83583 9.02058 7.42894 8.5529 8.11219 8.23198C8.79543 7.91106 9.54958 7.74593 10.3135 7.75C11.6885 7.75 10.3135 9.46146 11.7847 12.5615L9.81846 14.4021C9.3882 14.0107 9.06905 13.5243 8.89013 12.9874C8.71121 12.4504 8.67819 11.8799 8.79409 11.3279C8.80763 11.2431 8.80326 11.1566 8.78122 11.0734C8.75918 10.9902 8.71991 10.9118 8.66564 10.8429C8.61138 10.7739 8.54319 10.7157 8.46496 10.6714C8.38673 10.6272 8.3 10.5979 8.20971 10.5852C8.11943 10.5725 8.02736 10.5766 7.93877 10.5973C7.85017 10.618 7.76679 10.6549 7.69337 10.7059C7.61996 10.7568 7.55795 10.8209 7.51088 10.8944C7.46382 10.9679 7.43263 11.0494 7.41909 11.1342C7.31215 11.7024 7.31215 12.2839 7.41909 12.8521C6.80742 12.9733 6.23639 13.2327 5.75534 13.6077C5.64852 13.6935 5.57227 13.808 5.53685 13.9358C5.50143 14.0635 5.50855 14.1984 5.55724 14.3223C5.60593 14.4461 5.69386 14.553 5.80918 14.6285C5.9245 14.7039 6.06167 14.7444 6.20221 14.7444C6.70409 14.7444 6.71096 14.2858 7.87971 14.0985C8.76659 15.6808 9.11034 15.0544 8.48471 15.6485C8.23394 15.8855 8.06655 16.189 8.00508 16.5181C7.94362 16.8472 7.99104 17.1862 8.14096 17.4892C7.78884 17.8513 7.51142 18.2718 7.32284 18.7292C3.11534 19.136 2.82659 22.0552 4.12596 22.0552C5.42534 22.0552 3.92659 20.5375 7.10284 20.066C6.85534 22.2231 6.63534 23.7215 4.68284 24.6192C4.54978 24.6864 4.44402 24.793 4.38191 24.9224C4.3198 25.0518 4.3048 25.1968 4.33924 25.335C4.37367 25.4733 4.45562 25.597 4.57241 25.687C4.6892 25.7771 4.83432 25.8285 4.98534 25.8333C5.44596 25.8333 6.87596 25.026 7.56346 23.7279C8.10694 24.3264 8.84716 24.7377 9.66721 24.8969C9.84955 24.9191 10.0338 24.8725 10.1795 24.7671C10.3252 24.6617 10.4204 24.5063 10.4441 24.335C10.4678 24.1637 10.4181 23.9906 10.3059 23.8537C10.1938 23.7169 10.0283 23.6275 9.84596 23.6052C9.11437 23.3663 8.49758 22.89 8.10659 22.2619C8.74596 19.6785 8.10659 19.4202 9.15846 18.3158C10.2378 18.6646 10.836 18.0446 12.3553 17.0242L12.376 24.5417ZM30.7391 28.9269C30.3266 30.1088 28.5391 29.7923 27.4597 29.211C26.2604 28.4157 24.9772 27.7383 23.6303 27.1896C22.1316 26.6083 20.626 25.956 20.626 24.5417V17.0629C22.1935 18.0898 22.7503 18.684 23.816 18.3546C24.8678 19.4719 24.201 19.5817 24.8747 22.3006C24.4837 22.9287 23.8669 23.4051 23.1353 23.644C22.953 23.6662 22.7875 23.7556 22.6754 23.8925C22.5632 24.0293 22.5135 24.2025 22.5372 24.3738C22.5609 24.545 22.6561 24.7005 22.8018 24.8058C22.9475 24.9112 23.1317 24.9579 23.3141 24.9356C24.149 24.7745 24.8993 24.348 25.4385 23.7279C26.126 25.0196 27.5835 25.8333 28.0372 25.8333C28.1931 25.8339 28.3445 25.7848 28.4667 25.6939C28.5889 25.603 28.6747 25.4759 28.7098 25.3332C28.745 25.1906 28.7275 25.0409 28.6603 24.9089C28.593 24.7768 28.48 24.6701 28.3397 24.6063C26.401 23.715 26.1741 22.2619 25.9197 20.0854C29.096 20.5569 27.6591 22.0746 28.8966 22.0746C30.1341 22.0746 29.9141 19.1554 25.6997 18.7485C25.5029 18.2892 25.216 17.8686 24.8541 17.5085C25.004 17.2055 25.0514 16.8666 24.99 16.5375C24.9285 16.2084 24.7611 15.9049 24.5103 15.6679C23.8847 15.0802 24.2353 15.6679 25.1222 14.1179C26.3185 14.3246 26.2635 14.7638 26.7928 14.7638C26.9334 14.7638 27.0706 14.7233 27.1859 14.6478C27.3012 14.5724 27.3891 14.4655 27.4378 14.3417C27.4865 14.2178 27.4936 14.0829 27.4582 13.9552C27.4228 13.8274 27.3465 13.7129 27.2397 13.6271C26.7587 13.2521 26.1876 12.9927 25.576 12.8715C25.6829 12.3032 25.6829 11.7218 25.576 11.1535C25.5486 10.9823 25.4499 10.8282 25.3017 10.7252C25.1534 10.6223 24.9677 10.5789 24.7853 10.6046C24.603 10.6303 24.439 10.723 24.3294 10.8622C24.2198 11.0015 24.1736 11.176 24.201 11.3473C24.3169 11.8993 24.2838 12.4698 24.1049 13.0067C23.926 13.5437 23.6069 14.03 23.1766 14.4215L21.2103 12.5744C21.8287 11.2618 22.1 9.82819 22.001 8.39583C22.001 7.10417 25.1772 7.78229 26.6278 9.60354C29.8668 13.5711 31.6234 18.4309 31.626 23.4308C31.626 26.815 31.7153 26.1692 30.7391 28.9075V28.9269Z"/>
</mask>
<path d="M27.721 8.82208C25.4385 5.95458 20.626 5.56708 20.626 8.39583C20.7051 9.47031 20.5532 10.5488 20.1791 11.5669C18.9485 10.3333 19.251 9.93938 19.251 0.645833C19.251 0.474548 19.1785 0.310277 19.0496 0.18916C18.9207 0.068043 18.7458 0 18.5635 0C18.3811 0 18.2063 0.068043 18.0773 0.18916C17.9484 0.310277 17.876 0.474548 17.876 0.645833V9.37104C17.876 11.7606 19.1685 12.4581 23.5203 16.5463C23.5818 16.6086 23.617 16.6899 23.6191 16.7749C23.6213 16.8599 23.5903 16.9427 23.532 17.0078C23.4738 17.0728 23.3922 17.1156 23.3027 17.1282C23.2132 17.1407 23.1219 17.1221 23.046 17.0758L17.6835 13.5625C17.3368 13.3346 16.924 13.2124 16.501 13.2124C16.0779 13.2124 15.6651 13.3346 15.3185 13.5625C9.66034 17.2825 9.81846 17.3406 9.48159 17.05C9.41273 16.9847 9.37411 16.8965 9.37411 16.8046C9.37411 16.7127 9.41273 16.6245 9.48159 16.5592L13.751 12.5679C14.2019 12.1443 14.5588 11.6406 14.8007 11.0862C15.0427 10.5319 15.1649 9.93788 15.1603 9.33875V0.645833C15.1603 0.474548 15.0879 0.310277 14.959 0.18916C14.83 0.068043 14.6552 0 14.4728 0C14.2905 0 14.1156 0.068043 13.9867 0.18916C13.8578 0.310277 13.7853 0.474548 13.7853 0.645833V9.37104C13.7872 10.1877 13.4549 10.9738 12.8572 11.5669C12.4755 10.5501 12.3119 9.47233 12.376 8.39583C12.376 5.64458 7.66659 5.92875 5.36346 8.71875C1.89242 12.9304 0.00645017 18.1045 0.000962852 23.4308C0.000962852 26.9506 -0.0677872 26.434 0.956588 29.3079C1.13162 29.805 1.47044 30.2368 1.92402 30.541C2.37761 30.8452 2.92244 31.0059 3.47971 31C4.80731 30.9802 6.09073 30.5488 7.13034 29.7729C10.1485 27.8677 13.751 27.6417 13.751 24.5417V16.1458C16.1572 14.5635 16.3703 14.2535 16.8928 14.5958L19.251 16.1458V24.5417C19.251 26.6213 21.011 27.6029 23.1216 28.4167C24.4059 28.9474 25.631 29.5964 26.7791 30.3542C28.7316 31.4069 31.3303 31.381 32.0453 29.3531C33.0972 26.3629 33.001 26.8667 33.001 23.4308C32.9964 18.1487 31.1409 13.0149 27.721 8.82208ZM12.376 24.5417C12.376 25.969 10.8772 26.6277 9.37159 27.1896C8.025 27.7352 6.73986 28.4059 5.53534 29.1917C4.40784 29.8052 2.67534 30.0765 2.26284 28.901C1.27971 26.1433 1.37596 26.7569 1.37596 23.4308C1.37894 18.4279 3.13812 13.5656 6.38096 9.59708C6.83583 9.02058 7.42894 8.5529 8.11219 8.23198C8.79543 7.91106 9.54958 7.74593 10.3135 7.75C11.6885 7.75 10.3135 9.46146 11.7847 12.5615L9.81846 14.4021C9.3882 14.0107 9.06905 13.5243 8.89013 12.9874C8.71121 12.4504 8.67819 11.8799 8.79409 11.3279C8.80763 11.2431 8.80326 11.1566 8.78122 11.0734C8.75918 10.9902 8.71991 10.9118 8.66564 10.8429C8.61138 10.7739 8.54319 10.7157 8.46496 10.6714C8.38673 10.6272 8.3 10.5979 8.20971 10.5852C8.11943 10.5725 8.02736 10.5766 7.93877 10.5973C7.85017 10.618 7.76679 10.6549 7.69337 10.7059C7.61996 10.7568 7.55795 10.8209 7.51088 10.8944C7.46382 10.9679 7.43263 11.0494 7.41909 11.1342C7.31215 11.7024 7.31215 12.2839 7.41909 12.8521C6.80742 12.9733 6.23639 13.2327 5.75534 13.6077C5.64852 13.6935 5.57227 13.808 5.53685 13.9358C5.50143 14.0635 5.50855 14.1984 5.55724 14.3223C5.60593 14.4461 5.69386 14.553 5.80918 14.6285C5.9245 14.7039 6.06167 14.7444 6.20221 14.7444C6.70409 14.7444 6.71096 14.2858 7.87971 14.0985C8.76659 15.6808 9.11034 15.0544 8.48471 15.6485C8.23394 15.8855 8.06655 16.189 8.00508 16.5181C7.94362 16.8472 7.99104 17.1862 8.14096 17.4892C7.78884 17.8513 7.51142 18.2718 7.32284 18.7292C3.11534 19.136 2.82659 22.0552 4.12596 22.0552C5.42534 22.0552 3.92659 20.5375 7.10284 20.066C6.85534 22.2231 6.63534 23.7215 4.68284 24.6192C4.54978 24.6864 4.44402 24.793 4.38191 24.9224C4.3198 25.0518 4.3048 25.1968 4.33924 25.335C4.37367 25.4733 4.45562 25.597 4.57241 25.687C4.6892 25.7771 4.83432 25.8285 4.98534 25.8333C5.44596 25.8333 6.87596 25.026 7.56346 23.7279C8.10694 24.3264 8.84716 24.7377 9.66721 24.8969C9.84955 24.9191 10.0338 24.8725 10.1795 24.7671C10.3252 24.6617 10.4204 24.5063 10.4441 24.335C10.4678 24.1637 10.4181 23.9906 10.3059 23.8537C10.1938 23.7169 10.0283 23.6275 9.84596 23.6052C9.11437 23.3663 8.49758 22.89 8.10659 22.2619C8.74596 19.6785 8.10659 19.4202 9.15846 18.3158C10.2378 18.6646 10.836 18.0446 12.3553 17.0242L12.376 24.5417ZM30.7391 28.9269C30.3266 30.1088 28.5391 29.7923 27.4597 29.211C26.2604 28.4157 24.9772 27.7383 23.6303 27.1896C22.1316 26.6083 20.626 25.956 20.626 24.5417V17.0629C22.1935 18.0898 22.7503 18.684 23.816 18.3546C24.8678 19.4719 24.201 19.5817 24.8747 22.3006C24.4837 22.9287 23.8669 23.4051 23.1353 23.644C22.953 23.6662 22.7875 23.7556 22.6754 23.8925C22.5632 24.0293 22.5135 24.2025 22.5372 24.3738C22.5609 24.545 22.6561 24.7005 22.8018 24.8058C22.9475 24.9112 23.1317 24.9579 23.3141 24.9356C24.149 24.7745 24.8993 24.348 25.4385 23.7279C26.126 25.0196 27.5835 25.8333 28.0372 25.8333C28.1931 25.8339 28.3445 25.7848 28.4667 25.6939C28.5889 25.603 28.6747 25.4759 28.7098 25.3332C28.745 25.1906 28.7275 25.0409 28.6603 24.9089C28.593 24.7768 28.48 24.6701 28.3397 24.6063C26.401 23.715 26.1741 22.2619 25.9197 20.0854C29.096 20.5569 27.6591 22.0746 28.8966 22.0746C30.1341 22.0746 29.9141 19.1554 25.6997 18.7485C25.5029 18.2892 25.216 17.8686 24.8541 17.5085C25.004 17.2055 25.0514 16.8666 24.99 16.5375C24.9285 16.2084 24.7611 15.9049 24.5103 15.6679C23.8847 15.0802 24.2353 15.6679 25.1222 14.1179C26.3185 14.3246 26.2635 14.7638 26.7928 14.7638C26.9334 14.7638 27.0706 14.7233 27.1859 14.6478C27.3012 14.5724 27.3891 14.4655 27.4378 14.3417C27.4865 14.2178 27.4936 14.0829 27.4582 13.9552C27.4228 13.8274 27.3465 13.7129 27.2397 13.6271C26.7587 13.2521 26.1876 12.9927 25.576 12.8715C25.6829 12.3032 25.6829 11.7218 25.576 11.1535C25.5486 10.9823 25.4499 10.8282 25.3017 10.7252C25.1534 10.6223 24.9677 10.5789 24.7853 10.6046C24.603 10.6303 24.439 10.723 24.3294 10.8622C24.2198 11.0015 24.1736 11.176 24.201 11.3473C24.3169 11.8993 24.2838 12.4698 24.1049 13.0067C23.926 13.5437 23.6069 14.03 23.1766 14.4215L21.2103 12.5744C21.8287 11.2618 22.1 9.82819 22.001 8.39583C22.001 7.10417 25.1772 7.78229 26.6278 9.60354C29.8668 13.5711 31.6234 18.4309 31.626 23.4308C31.626 26.815 31.7153 26.1692 30.7391 28.9075V28.9269Z" fill="#3AC528" stroke="#3AC528" stroke-width="0.4" mask="url(#path-1-inside-1_2315_37066)"/>
</svg>
