<svg width="56" height="56" viewBox="0 0 56 56" fill="none" xmlns="http://www.w3.org/2000/svg">
<rect width="56" height="56" rx="28" fill="#DEEBFD"/>
<path d="M21.0316 16.9098C21.0316 20.7146 24.1267 23.8098 27.9316 23.8098C31.7364 23.8098 34.8316 20.7146 34.8316 16.9098C34.8316 13.1049 31.7364 10.0098 27.9316 10.0098C24.1267 10.0098 21.0316 13.1049 21.0316 16.9098ZM22.8616 16.9098C22.8616 14.1139 25.1356 11.8398 27.9316 11.8398C30.7275 11.8398 33.0016 14.1139 33.0016 16.9098C33.0016 19.7057 30.7275 21.9798 27.9316 21.9798C25.1356 21.9798 22.8616 19.7057 22.8616 16.9098Z" fill="#013DC0" stroke="#013DC0" stroke-width="0.5"/>
<path d="M16.6251 38.4402H24.6051C25.1102 38.4402 25.5201 38.0304 25.5201 37.5252C25.5201 37.0201 25.1102 36.6102 24.6051 36.6102H17.5401V32.2052C17.5401 29.7764 19.5163 27.8002 21.9451 27.8002H33.9151C35.1149 27.8002 36.2698 28.294 37.081 29.1504C37.4282 29.5176 38.0084 29.535 38.3752 29.1851C38.7428 28.8372 38.7572 28.2574 38.4095 27.8914C37.2512 26.6694 35.6147 25.9702 33.9151 25.9702H21.9451C18.5073 25.9702 15.7101 28.7674 15.7101 32.2052V37.5252C15.7101 38.0304 16.1199 38.4402 16.6251 38.4402Z" fill="#013DC0" stroke="#013DC0" stroke-width="0.5"/>
<path d="M35.1813 39.3411L33.4035 35.7853L33.4032 35.7848C33.2479 35.476 32.9316 35.28 32.5854 35.28H28.5954C28.0902 35.28 27.6804 35.6899 27.6804 36.195C27.6804 36.7002 28.0902 37.11 28.5954 37.11H32.0199L34.4272 41.9248C34.5829 42.236 34.8998 42.43 35.2454 42.43H35.2454H35.2454H35.2455H35.2455H35.2456H35.2456H35.2456H35.2457H35.2457H35.2457H35.2458H35.2458H35.2459H35.2459H35.2459H35.246H35.246H35.2461H35.2461H35.2461H35.2462H35.2462H35.2463H35.2463H35.2463H35.2464H35.2464H35.2464H35.2465H35.2465H35.2466H35.2466H35.2466H35.2467H35.2467H35.2468H35.2468H35.2468H35.2469H35.2469H35.247H35.247H35.247H35.2471H35.2471H35.2472H35.2472H35.2472H35.2473H35.2473H35.2473H35.2474H35.2474H35.2475H35.2475H35.2475H35.2476H35.2476H35.2477H35.2477H35.2477H35.2478H35.2478H35.2479H35.2479H35.2479H35.248H35.248H35.248H35.2481H35.2481H35.2482H35.2482H35.2482H35.2483H35.2483H35.2484H35.2484H35.2484H35.2485H35.2485H35.2486H35.2486H35.2486H35.2487H35.2487H35.2487H35.2488H35.2488H35.2489H35.2489H35.2489H35.249H35.249H35.2491H35.2491H35.2491H35.2492H35.2492H35.2493H35.2493H35.2493H35.2494H35.2494H35.2495H35.2495H35.2495H35.2496H35.2496H35.2496H35.2497H35.2497H35.2498H35.2498H35.2498H35.2499H35.2499H35.25H35.25H35.25H35.2501H35.2501H35.2502H35.2502H35.2502H35.2503H35.2503H35.2503H35.2504H35.2504H35.2505H35.2505H35.2505H35.2506H35.2506H35.2507H35.2507H35.2507H35.2508H35.2508H35.2509H35.2509H35.2509H35.251H35.251H35.251H35.2511H35.2511H35.2512H35.2512H35.2512H35.2513H35.2513H35.2514H35.2514H35.2514H35.2515H35.2515H35.2516H35.2516H35.2516H35.2517H35.2517H35.2517H35.2518H35.2518H35.2519H35.2519H35.2519H35.252H35.252H35.2521H35.2521H35.2521H35.2522H35.2522H35.2523H35.2523H35.2523H35.2524H35.2524H35.2525H35.2525H35.2525H35.2526H35.2526H35.2526H35.2527H35.2527H35.2528H35.2528H35.2528H35.2529H35.2529H35.253H35.253H35.253H35.2531H35.2531H35.2532H35.2532H35.2532H35.2533H35.2533H35.2533H35.2534H35.2534H35.2535H35.2535H35.2535H35.2536H35.2536H35.2537H35.2537H35.2537H35.2538H35.2538H35.2539H35.2539H35.2539H35.254H35.254H35.254H35.2541H35.2541H35.2542H35.2542H35.2542H35.2543H35.2543H35.2544H35.2544H35.2544H35.2545H35.2545H35.2546H35.2546H35.2546H35.2547H35.2547H35.2547H35.2548H35.2548H35.2549H35.2549H35.2549H35.255H35.255H35.2551H35.2551H35.2551H35.2552H35.2552H35.2553H35.2553H35.2553H35.2554H35.2554H35.2555H35.2555H35.2555H35.2556H35.2556H35.2556H35.2557H35.2557H35.2558H35.2558H35.2558H35.2559H35.2559H35.256H35.256H35.256H35.2561H35.2561H35.2562H35.2562H35.2562H35.2563H35.2563H35.2563H35.2564H35.2564H35.2565H35.2565H35.2565H35.2566H35.2566H35.2567H35.2567H35.2567H35.2568H35.2568H35.2569H35.2569H35.2569H35.257H35.257H35.257H35.2571H35.2571H35.2572H35.2572H35.2572H35.2573H35.2573H35.2574H35.2574H35.2574H35.2575H35.2575H35.2576H35.2576H35.2576H35.2577H35.2577H35.2578H35.2578H35.2578H35.2579H35.2579H35.2579H35.258H35.258H35.2581H35.2581H35.2581H35.2582H35.2582H35.2583H35.2583H35.2583H35.2584H35.2584H35.2585H35.2585H35.2585H35.2586H35.2586H35.2586H35.2587H35.2587H35.2588H35.2588H35.2588H35.2589H35.2589H35.259H35.259H35.259H35.2591H35.2591H35.2592H35.2592H35.2592H35.2593H35.2593H35.2593H35.2594H35.2594H35.2595H35.2595H35.2595H35.2596H35.2596H35.2597H35.2597H35.2597H35.2598H35.2598H35.2599H35.2599H35.2599H35.26H35.26H35.26H35.2601H35.2601H35.2602H35.2602H35.2602H35.2603H35.2603H35.2604H35.2604H35.2604H35.2605H35.2605H35.2606H35.2606H35.2606H35.2607H35.2607H35.2608H35.2608H35.2608H35.2609H35.2609H35.2609H35.261H35.261H35.2611H35.2611H35.2611H35.2612H35.2612H35.2613H35.2613H35.2613H35.2614H35.2614H35.2615H35.2615H35.2615H35.2616H35.2616H35.2616H35.2617H35.2617H35.2618H35.2618H35.2618H35.2619H35.2619H35.262H35.262H35.262H35.2621H35.2621H35.2622H35.2622H35.2622H35.2623H35.2623H35.2623H35.2624H35.2624H35.2625H35.2625H35.2625H35.2626H35.2626H35.2627H35.2627H35.2627H35.2628H35.2628H35.2629H35.2629H35.2629H35.263H35.263H35.263H35.2631H35.2631H35.2632H35.2632H35.2632H35.2633H35.2633H35.2634H35.2634H35.2634H35.2635H35.2635H35.2636H35.2636H35.2636H35.2637H35.2637H35.2638H35.2638H35.2638H35.2639H35.2639H35.2639H35.264H35.264H35.2641H35.2641H35.2641H35.2642H35.2642H35.2643H35.2643H35.2643H35.2644H35.2644H35.2645H35.2645H35.2645H35.2646H35.2646H35.2646H35.2647H35.2647H35.2648H35.2648H35.2648H35.2649H35.2649H35.265H35.265H35.265H35.2651H35.2651H35.2652H35.2652H35.2652H35.2653H35.2653V42.4302L35.273 42.4299C35.6295 42.419 35.9461 42.203 36.0868 41.8758L36.0869 41.8755L39.2994 34.379L42.4072 40.5948L42.4075 40.5953C42.5628 40.9041 42.8791 41.1 43.2254 41.1H47.2154C47.7205 41.1 48.1304 40.6902 48.1304 40.185C48.1304 39.6799 47.7205 39.27 47.2154 39.27H43.7908L40.0535 31.7953C39.8887 31.4658 39.5528 31.3021 39.2245 31.2902L39.2161 31.2899L39.2077 31.2902C38.8512 31.3011 38.5346 31.5171 38.3939 31.8442L38.3938 31.8446L35.1813 39.3411Z" fill="#013DC0" stroke="#013DC0" stroke-width="0.5"/>
</svg>
