<svg width="23" height="23" viewBox="0 0 23 23" fill="none" xmlns="http://www.w3.org/2000/svg">
<path d="M4.4 5.375C4.4 7.8426 6.4074 9.85 8.875 9.85C11.3426 9.85 13.35 7.8426 13.35 5.375C13.35 2.9074 11.3426 0.9 8.875 0.9C6.4074 0.9 4.4 2.9074 4.4 5.375ZM5.475 5.375C5.475 3.49998 6.99998 1.975 8.875 1.975C10.75 1.975 12.275 3.49998 12.275 5.375C12.275 7.25002 10.75 8.775 8.875 8.775C6.99998 8.775 5.475 7.25002 5.475 5.375Z" fill="white" stroke="white" stroke-width="0.2"/>
<path d="M1.4375 19.475H9.3125C9.60923 19.475 9.85 19.2342 9.85 18.9375C9.85 18.6408 9.60923 18.4 9.3125 18.4H1.975V15.4375C1.975 13.804 3.30398 12.475 4.9375 12.475H12.8125C13.1092 12.475 13.35 12.2342 13.35 11.9375C13.35 11.6408 13.1092 11.4 12.8125 11.4H4.9375C2.7114 11.4 0.9 13.2114 0.9 15.4375V18.9375C0.9 19.2342 1.14077 19.475 1.4375 19.475Z" fill="white" stroke="white" stroke-width="0.2"/>
<path d="M16.3125 22.1H17.1875C17.9664 22.1 18.6 21.4664 18.6 20.6875V18.6H20.6875C21.4664 18.6 22.1 17.9664 22.1 17.1875V16.3125C22.1 15.5336 21.4664 14.9 20.6875 14.9H18.6V12.8125C18.6 12.0336 17.9664 11.4 17.1875 11.4H16.3125C15.5336 11.4 14.9 12.0336 14.9 12.8125V14.9H12.8125C12.0336 14.9 11.4 15.5336 11.4 16.3125V17.1875C11.4 17.9664 12.0336 18.6 12.8125 18.6H14.9V20.6875C14.9 21.4664 15.5336 22.1 16.3125 22.1ZM12.475 16.3125C12.475 16.1262 12.6262 15.975 12.8125 15.975H15.4375C15.7342 15.975 15.975 15.7342 15.975 15.4375V12.8125C15.975 12.6262 16.1262 12.475 16.3125 12.475H17.1875C17.3738 12.475 17.525 12.6262 17.525 12.8125V15.4375C17.525 15.7342 17.7658 15.975 18.0625 15.975H20.6875C20.8738 15.975 21.025 16.1262 21.025 16.3125V17.1875C21.025 17.3738 20.8738 17.525 20.6875 17.525H18.0625C17.7658 17.525 17.525 17.7658 17.525 18.0625V20.6875C17.525 20.8738 17.3738 21.025 17.1875 21.025H16.3125C16.1262 21.025 15.975 20.8738 15.975 20.6875V18.0625C15.975 17.7658 15.7342 17.525 15.4375 17.525H12.8125C12.6262 17.525 12.475 17.3738 12.475 17.1875V16.3125Z" fill="white" stroke="white" stroke-width="0.2"/>
</svg>
