<svg width="56" height="56" viewBox="0 0 56 56" fill="none" xmlns="http://www.w3.org/2000/svg">
<rect width="56" height="56" rx="28" fill="#DEEBFD"/>
<g clip-path="url(#clip0_2087_36928)">
<path d="M35.7298 42.5599H19.151C16.9165 42.5599 15.0984 40.742 15.0984 38.5073V18.6127C15.0984 16.3781 16.9165 14.5601 19.151 14.5601H33.3809C33.5694 14.5601 33.751 14.6325 33.8881 14.7622L39.5528 20.1345C39.6993 20.2737 39.7825 20.467 39.7825 20.6691V38.5072C39.7825 40.742 37.9645 42.5599 35.7298 42.5599ZM19.151 16.0338C17.729 16.0338 16.5721 17.1907 16.5721 18.6127V38.5074C16.5721 39.9295 17.729 41.0863 19.151 41.0863H35.7298C37.152 41.0863 38.3088 39.9295 38.3088 38.5074V20.9861L33.087 16.0338H19.151Z" fill="#013DC0"/>
<path d="M34.072 24.109H20.8089C20.4019 24.109 20.072 23.7791 20.072 23.3721C20.072 22.9651 20.4019 22.6353 20.8089 22.6353H34.072C34.479 22.6353 34.8088 22.9651 34.8088 23.3721C34.8088 23.7792 34.479 24.109 34.072 24.109Z" fill="#013DC0"/>
<path d="M34.072 27.4391H20.8089C20.4019 27.4391 20.072 27.1092 20.072 26.7022C20.072 26.2952 20.4019 25.9653 20.8089 25.9653H34.072C34.479 25.9653 34.8088 26.2952 34.8088 26.7022C34.8088 27.1092 34.479 27.4391 34.072 27.4391Z" fill="#013DC0"/>
<path d="M23.2817 30.7696H20.8089C20.4019 30.7696 20.072 30.4397 20.072 30.0328C20.072 29.6258 20.4019 29.2959 20.8089 29.2959H23.2817C23.6887 29.2959 24.0186 29.6258 24.0186 30.0328C24.0186 30.4397 23.6887 30.7696 23.2817 30.7696Z" fill="#013DC0"/>
<path d="M39.0456 21.4059H34.925C33.6672 21.4059 32.6437 20.3827 32.6437 19.1249V15.2971C32.6437 15.0026 32.819 14.7364 33.0895 14.6201C33.3604 14.5035 33.6736 14.5598 33.8877 14.7624L39.5527 20.1345C39.7715 20.342 39.8417 20.6619 39.73 20.942C39.6184 21.2221 39.3472 21.4059 39.0456 21.4059ZM34.1174 17.0113V19.1249C34.1174 19.57 34.4798 19.9323 34.925 19.9323H37.1977L34.1174 17.0113Z" fill="#013DC0"/>
<path d="M30.1898 36.916C29.0978 36.916 28.0713 36.4909 27.2993 35.7186C25.7054 34.1249 25.7054 31.5313 27.2994 29.9376C28.0714 29.1654 29.0978 28.7402 30.1898 28.7402C31.2818 28.7402 32.3085 29.1654 33.0804 29.9376C34.6741 31.5313 34.6741 34.1249 33.0804 35.7186C32.3085 36.4909 31.2818 36.916 30.1898 36.916ZM30.1898 30.214C29.4915 30.214 28.8353 30.486 28.3413 30.9796C27.3221 31.9988 27.3221 33.6575 28.3413 34.6767C28.8353 35.1703 29.4915 35.4424 30.1898 35.4424C30.8881 35.4424 31.5446 35.1703 32.0385 34.6767C33.0574 33.6575 33.0574 31.9988 32.0385 30.9796C31.5446 30.486 30.888 30.214 30.1898 30.214Z" fill="#013DC0"/>
<path d="M35.7512 39.1264C35.5627 39.1264 35.3741 39.0544 35.2302 38.9106L32.0385 35.7188C31.7507 35.431 31.7507 34.9647 32.0385 34.6768C32.3263 34.3889 32.7926 34.389 33.0805 34.6768L36.2722 37.8686C36.56 38.1564 36.56 38.6226 36.2722 38.9105C36.1282 39.0544 35.9397 39.1264 35.7512 39.1264Z" fill="#013DC0"/>
</g>
<defs>
<clipPath id="clip0_2087_36928">
<rect width="28" height="28" fill="white" transform="translate(13.4404 14.5601)"/>
</clipPath>
</defs>
</svg>
