<svg width="37" height="31" viewBox="0 0 37 31" fill="none" xmlns="http://www.w3.org/2000/svg">
<path d="M14.8944 19.8847C10.9 19.8847 7.66328 16.8884 7.66328 13.2066C7.66328 9.52486 10.9 6.52852 14.8944 6.52852C18.8888 6.52852 22.1255 9.52486 22.1255 13.2066C22.1255 16.8884 18.8888 19.8847 14.8944 19.8847ZM14.8944 8.29899C11.9703 8.29899 9.57742 10.4952 9.57742 13.2159C9.57742 15.9366 11.9601 18.1329 14.8944 18.1329C17.8286 18.1329 20.2114 15.9366 20.2114 13.2159C20.2114 10.4952 17.8185 8.29899 14.8944 8.29899Z" fill="#3294E3" stroke="white" stroke-width="0.1"/>
<path d="M23.9873 17.6747C23.7859 17.9539 23.4234 18.1028 23.0608 18.0748C22.2854 18.019 21.8523 17.2187 22.2753 16.6231L23.9873 17.6747ZM23.9873 17.6747L23.9468 17.6454C23.9467 17.6456 23.9466 17.6457 23.9465 17.6458C23.9464 17.6459 23.9463 17.6461 23.9462 17.6462L23.9873 17.6747ZM21.7127 23.5841C21.4757 23.2156 21.5606 22.7598 21.8845 22.4868L21.885 22.4864C22.0326 22.3591 22.2605 22.2124 22.6143 21.9883C23.1428 21.6534 24.0267 21.0911 24.7975 20.4431C25.1829 20.119 25.5414 19.7724 25.8135 19.4209C26.085 19.07 26.2737 18.71 26.313 18.3596L26.313 18.3593C26.354 17.9715 26.2941 17.674 26.0977 17.4723L26.0975 17.4721C25.8895 17.2607 25.5223 16.9989 24.9476 17.0761L21.7127 23.5841ZM21.7127 23.5841C21.7126 23.5839 21.7124 23.5837 21.7123 23.5835L21.6711 23.6118L21.7131 23.5847C21.713 23.5845 21.7128 23.5843 21.7127 23.5841ZM25.5986 22.1973V22.1473H25.6633C25.6418 22.1641 25.6202 22.1807 25.5986 22.1973ZM25.5986 22.1973L25.6291 22.237C25.6462 22.2238 25.6633 22.2106 25.6804 22.1973H25.5986ZM27.5523 16.2602L27.5167 16.2952C27.5167 16.2952 27.5167 16.2952 27.5167 16.2952L27.5523 16.2602Z" fill="#3294E3" stroke="white" stroke-width="0.1"/>
<path d="M3.98513 23.1022L3.98513 23.1022H3.98676H3.98785C3.99817 23.1022 4.02112 23.1022 4.04501 23.093C4.07113 23.083 4.09572 23.0631 4.11146 23.0294C4.13041 22.9988 4.13664 22.9687 4.13164 22.941C4.12752 22.9181 4.11657 22.9015 4.10694 22.8909C2.29256 19.9614 1.59111 16.495 2.11267 13.1306C2.64449 9.71839 4.45089 6.53695 7.18169 4.17126C10.1937 1.57361 14.1199 0.107354 18.2375 0.0516725L18.2368 0.00167706L18.2375 0.0516724C22.3251 -0.00400997 26.2714 1.3324 29.3335 3.80941L29.3339 3.80973C29.7341 4.12669 29.7715 4.68821 29.4294 5.04821L29.429 5.04865C29.0848 5.41968 28.4702 5.45575 28.0772 5.13689L28.0771 5.1368C22.4086 0.561782 13.9927 0.701798 8.48591 5.45426L8.48589 5.45428C3.51322 9.75041 2.39003 16.5614 5.76702 22.0269L5.76712 22.0271C6.13945 22.6246 6.12967 23.3572 5.73773 23.9458L5.7377 23.9457L5.73668 23.9474C5.39434 24.5078 4.71669 24.8634 3.99684 24.8634H3.99672H3.9966H3.99648H3.99636H3.99624H3.99612H3.996H3.99588H3.99576H3.99564H3.99552H3.9954H3.99528H3.99516H3.99504H3.99492H3.9948H3.99467H3.99455H3.99443H3.99431H3.99418H3.99406H3.99394H3.99382H3.99369H3.99357H3.99344H3.99332H3.9932H3.99307H3.99295H3.99282H3.9927H3.99257H3.99244H3.99232H3.99219H3.99207H3.99194H3.99181H3.99169H3.99156H3.99143H3.9913H3.99118H3.99105H3.99092H3.99079H3.99067H3.99054H3.99041H3.99028H3.99015H3.99002H3.98989H3.98976H3.98963H3.9895H3.98937H3.98924H3.98911H3.98898H3.98885H3.98872H3.98859H3.98846H3.98832H3.98819H3.98806H3.98793H3.9878H3.98766H3.98753H3.9874H3.98727H3.98713H3.987H3.98687H3.98673H3.9866H3.98647H3.98633H3.9862H3.98606H3.98593H3.98579H3.98566H3.98552H3.98539H3.98525H3.98512H3.98498H3.98485H3.98471H3.98458H3.98444H3.9843H3.98417H3.98403H3.98389H3.98376H3.98362H3.98348H3.98335H3.98321H3.98307H3.98293H3.9828H3.98266H3.98252H3.98238H3.98224H3.98211H3.98197H3.98183H3.98169H3.98155H3.98141H3.98127H3.98113H3.98099H3.98085H3.98072H3.98058H3.98044H3.9803H3.98016H3.98002H3.97988H3.97973H3.97959H3.97945H3.97931H3.97917H3.97903H3.97889H3.97875H3.97861H3.97847H3.97832H3.97818H3.97804H3.9779H3.97776H3.97762H3.97747H3.97733H3.97719H3.97705H3.9769H3.97676H3.97662H3.97648H3.97633H3.97619H3.97605H3.9759H3.97576H3.97562H3.97547H3.97533H3.97519H3.97504H3.9749H3.97476H3.97461H3.97447H3.97432H3.97418H3.97403H3.97389H3.97375H3.9736H3.97346H3.97331H3.97317H3.97302H3.97288H3.97273H3.97259H3.97244H3.9723H3.97215H3.97201H3.97186H3.97172H3.97157H3.97143H3.97128H3.97114H3.97099H3.97084H3.9707H3.97055H3.97041H3.97026H3.97011H3.96997H3.96982H3.96968H3.96953H3.96938H3.96924H3.96909H3.96895H3.9688H3.96865H3.96851H3.96836H3.96821H3.96807H3.96792H3.96777H3.96763H3.96748H3.96733H3.96719H3.96704H3.96689H3.96674H3.9666H3.96645H3.9663H3.96616H3.96601H3.96586H3.96572H3.96557H3.96542H3.96527H3.96513H3.96498H3.96483H3.96468H3.96454H3.96439H3.96424H3.9641H3.96395H3.9638H3.96365H3.96351H3.96336H3.96321H3.96306H3.96292H3.96277H3.96262H3.96247H3.96233H3.96218H3.96203H3.96188H3.96174H3.96159H3.96144H3.96129H3.96115H3.961H3.96085H3.9607H3.96056H3.96041H3.96026H3.96011H3.95997H3.95982H3.95967H3.95952H3.95938H3.95923H3.95908H3.95893H3.95879H3.95864H3.95849H3.95834H3.9582H3.95805H3.9579H3.95776H3.95761H3.95746H3.95731H3.95717H3.95702H3.95687H3.95673H3.95658H3.95643H3.95628H3.95614H3.95599H3.95584H3.9557H3.95555H3.9554H3.95526H3.95511H3.95496H3.95482H3.95467H3.95452H3.95438H3.95423H3.95408H3.95394H3.95379H3.95365H3.9535H3.95335H3.95321H3.95306H3.95292H3.95277H3.95262H3.95248H3.95233H3.95219H3.95204H3.95189H3.95175H3.9516H3.95146H3.95131H3.95117H3.95102H3.95088H3.95073H3.95059H3.95044H3.9503H3.95015H3.95001H3.94986H3.94972H3.94957H3.94943H3.94929H3.94914H3.949H3.94885H3.94871H3.94856H3.94842H3.94828H3.94813H3.94799H3.94785H3.9477H3.94756H3.94742H3.94727H3.94713H3.94699H3.94684H3.9467H3.94656H3.94641H3.94627H3.94613H3.94599H3.94584H3.9457H3.94556H3.94542H3.94528H3.94513H3.94499H3.94485H3.94471H3.94457H3.94443H3.94429H3.94414H3.944H3.94386H3.94372H3.94358H3.94344H3.9433H3.94316H3.94302H3.94288H3.94274H3.9426H3.94246H3.94232H3.94218H3.94204H3.9419H3.94176H3.94162H3.94149H3.94135H3.94121H3.94107H3.94093H3.94079H3.94065H3.94052H3.94038H3.94024H3.9401H3.93997H3.93983H3.93969H3.93955H3.93942H3.93928H3.93914H3.93901H3.93887H3.93874H3.9386H3.93846H3.93833H3.93819H3.93806H3.93792H3.93779H3.93765H3.93752H3.93738H3.93725H3.93711H3.93698H3.93684H3.93671H3.93658H3.93644H3.93631H3.93618H3.93604H3.93591H3.93578H3.93564H3.93551H3.93538H3.93525H3.93511H3.93498H3.93485H3.93472H3.93459H3.93446H3.93433H3.9342H3.93406H3.93393H3.9338H3.93367H3.93354H3.93341H3.93328H3.93316H3.93303H3.9329H3.93277H3.93264H3.93251H3.93238H3.93225H3.93213H3.932H3.93187H3.93174H3.93162H3.93149H3.93136H3.93124H3.93111H3.93098H3.93086H3.93073H3.93061H3.93048H3.93036H3.93023H3.93011H3.92998H3.92986H3.92973H3.92961H3.92948H3.92936H3.92924H3.92911H3.92899H3.92887H3.92875H3.92862H3.9285H3.92838H3.92826H3.92814H3.92801H3.92789H3.92777H3.92765H3.92753H3.92741H3.92729H3.92717H3.92705H3.92693H3.92681H3.9267H3.92658H3.92646H3.92634L1.08808 24.7703C0.558192 24.7525 0.150068 24.3441 0.159537 23.8628C0.168964 23.3837 0.61411 23.0004 1.14567 23.0091C1.14578 23.0091 1.14588 23.0091 1.14599 23.0091L3.98513 23.1022Z" fill="#3294E3" stroke="white" stroke-width="0.1"/>
<path d="M7.63224 26.8468L7.63266 26.8471C10.6345 29.2777 14.4904 30.6049 18.4977 30.6049H18.4981C18.578 30.6049 18.6498 30.6049 18.7514 30.6141C22.8681 30.5579 26.7932 29.0917 29.8046 26.4946C32.5354 24.1289 34.3418 20.9475 34.8736 17.5353L34.8736 17.5351C35.4052 14.1709 34.7038 10.7045 32.8894 7.77492C32.8798 7.76437 32.8688 7.74776 32.8647 7.72488C32.8597 7.69717 32.8659 7.66704 32.8849 7.6364C32.9006 7.60269 32.9252 7.58285 32.9513 7.5728C32.9752 7.5636 32.9982 7.56363 33.0085 7.56364L33.0096 7.56364H33.0112V7.56367L35.8503 7.65671C35.8505 7.65671 35.8506 7.65671 35.8507 7.65672C36.3811 7.66543 36.8176 7.28301 36.8368 6.80254C36.846 6.32151 36.438 5.91333 35.9083 5.89551L7.63224 26.8468ZM7.63224 26.8468C7.23206 26.5298 7.19466 25.9683 7.53674 25.6083L7.53715 25.6079C7.8811 25.2371 8.48586 25.2005 8.88931 25.5199M7.63224 26.8468L8.88931 25.5199M8.88931 25.5199C14.5578 30.0947 22.9735 29.9547 28.4802 25.2023L28.4802 25.2023C33.4528 20.9062 34.5761 14.0954 31.2093 8.6391C30.8467 8.04132 30.8565 7.30829 31.2388 6.7196C31.6214 6.13037 32.3293 5.77514 33.0681 5.80245L33.0683 5.80245L35.9082 5.89551L8.88931 25.5199Z" fill="#3294E3" stroke="white" stroke-width="0.1"/>
</svg>
